<svg width="455" height="317" viewBox="0 0 455 317" fill="none" xmlns="http://www.w3.org/2000/svg">
<g clip-path="url(#clip0)">
<path d="M90.6557 317C140.724 317 181.311 313.913 181.311 310.105C181.311 306.298 140.724 303.211 90.6557 303.211C40.588 303.211 0 306.298 0 310.105C0 313.913 40.588 317 90.6557 317Z" fill="#E6E6E6"/>
<path d="M69.2954 70.3367C85.0722 63.6171 104.723 67.8746 123.913 70.8294C124.092 67.2511 126.256 62.8961 123.989 60.3996C121.234 57.3667 121.488 54.1799 123.145 50.9748C127.384 42.7787 121.311 34.0577 115.179 26.8063C113.797 25.1756 112.05 23.8943 110.081 23.0665C108.111 22.2387 105.974 21.8878 103.844 22.0422L92.4847 22.8547C89.7206 23.0524 87.0827 24.0907 84.9239 25.8307C82.7652 27.5707 81.1886 29.9294 80.4052 32.5912V32.5912C77.6928 36.2851 76.2411 39.9688 77.1551 43.6333C73.0924 46.4135 72.4099 49.7694 74.2355 53.5526C75.7835 55.9347 75.767 58.2534 74.1651 60.508C72.0612 63.3823 70.4498 66.5874 69.397 69.9916L69.2954 70.3367Z" fill="#2F2E41"/>
<path d="M444.218 274.041H122.667C119.808 274.041 117.065 272.904 115.043 270.879C113.021 268.854 111.885 266.108 111.885 263.245C228.447 249.68 342.819 249.68 455 263.245C455 266.108 453.864 268.854 451.842 270.879C449.82 272.904 447.078 274.041 444.218 274.041Z" fill="#2F2E41"/>
<path d="M455 263.88L111.885 263.245L151.651 196.243L151.841 195.925V48.2605C151.841 46.4682 152.194 44.6934 152.878 43.0374C153.563 41.3815 154.567 39.8769 155.833 38.6095C157.099 37.3422 158.601 36.3368 160.255 35.651C161.908 34.9652 163.681 34.6123 165.471 34.6124H399.512C401.302 34.6123 403.074 34.9652 404.728 35.651C406.381 36.3368 407.884 37.3422 409.15 38.6095C410.415 39.8769 411.419 41.3815 412.104 43.0374C412.789 44.6934 413.141 46.4682 413.141 48.2605V196.941L455 263.88Z" fill="#3F3D56"/>
<path d="M165.16 44.1388C163.983 44.1401 162.854 44.6089 162.022 45.4424C161.19 46.2758 160.722 47.4058 160.72 48.5844V183.224C160.722 184.402 161.19 185.532 162.022 186.366C162.854 187.199 163.983 187.668 165.16 187.669H401.725C402.902 187.668 404.03 187.199 404.863 186.365C405.695 185.532 406.163 184.402 406.165 183.224V48.5844C406.163 47.4058 405.695 46.2758 404.863 45.4424C404.031 44.609 402.902 44.1402 401.725 44.1388H165.16Z" fill="white"/>
<path d="M166.151 205.452C165.787 205.452 165.431 205.557 165.125 205.753C164.819 205.95 164.575 206.23 164.422 206.561L152.169 233.234C152.036 233.525 151.978 233.844 152 234.163C152.022 234.481 152.124 234.789 152.296 235.059C152.468 235.328 152.705 235.549 152.985 235.702C153.265 235.856 153.579 235.936 153.898 235.936H411.573C411.898 235.936 412.217 235.853 412.5 235.695C412.783 235.537 413.021 235.309 413.192 235.032C413.362 234.756 413.459 234.441 413.474 234.116C413.488 233.792 413.42 233.469 413.275 233.179L399.956 206.505C399.799 206.188 399.556 205.921 399.256 205.735C398.955 205.549 398.608 205.451 398.255 205.452H166.151Z" fill="#2F2E41"/>
<path d="M282.491 41.916C284.067 41.916 285.345 40.6365 285.345 39.0581C285.345 37.4797 284.067 36.2002 282.491 36.2002C280.915 36.2002 279.637 37.4797 279.637 39.0581C279.637 40.6365 280.915 41.916 282.491 41.916Z" fill="white"/>
<path d="M257.164 241.017C256.745 241.017 256.339 241.156 256.007 241.41C255.675 241.665 255.436 242.022 255.327 242.426L252.253 253.858C252.177 254.14 252.167 254.437 252.224 254.723C252.28 255.01 252.402 255.28 252.58 255.512C252.757 255.745 252.986 255.933 253.248 256.062C253.51 256.192 253.798 256.259 254.09 256.259H312.542C312.846 256.259 313.145 256.186 313.414 256.047C313.684 255.908 313.916 255.706 314.092 255.459C314.268 255.211 314.382 254.925 314.425 254.625C314.468 254.324 314.439 254.017 314.34 253.73L310.388 242.299C310.259 241.924 310.016 241.6 309.694 241.37C309.371 241.14 308.986 241.017 308.59 241.017H257.164Z" fill="#2F2E41"/>
<path d="M413.141 193.703V196.243H151.651L151.848 195.925V193.703H413.141Z" fill="#2F2E41"/>
<path d="M405.848 88.9126C430.367 88.9126 450.243 69.0089 450.243 44.4563C450.243 19.9038 430.367 0 405.848 0C381.329 0 361.452 19.9038 361.452 44.4563C361.452 69.0089 381.329 88.9126 405.848 88.9126Z" fill="#BC3838"/>
<path d="M424.24 63.8266H387.455C386.783 63.8259 386.138 63.5581 385.662 63.0818C385.187 62.6055 384.919 61.9598 384.918 61.2862V39.0581C384.919 38.3845 385.187 37.7388 385.662 37.2625C386.138 36.7863 386.783 36.5184 387.455 36.5177H424.24C424.913 36.5184 425.558 36.7863 426.033 37.2625C426.509 37.7388 426.777 38.3845 426.777 39.0581V61.2862C426.777 61.9598 426.509 62.6055 426.033 63.0818C425.558 63.5581 424.913 63.8259 424.24 63.8266ZM387.455 39.0581V61.2862H424.242L424.24 39.0581L387.455 39.0581Z" fill="white"/>
<path d="M417.264 39.0581H394.432V28.8966C394.432 21.5367 399.233 16.1948 405.848 16.1948C412.462 16.1948 417.264 21.5367 417.264 28.8966L417.264 39.0581ZM396.969 36.5177H414.727V28.8966C414.727 22.9138 411.076 18.7352 405.848 18.7352C400.62 18.7352 396.969 22.9138 396.969 28.8966L396.969 36.5177Z" fill="white"/>
<path d="M405.847 52.0774C407.249 52.0774 408.384 50.9401 408.384 49.5371C408.384 48.1341 407.249 46.9967 405.847 46.9967C404.446 46.9967 403.311 48.1341 403.311 49.5371C403.311 50.9401 404.446 52.0774 405.847 52.0774Z" fill="white"/>
<path d="M374.856 142.001H192.03C191.132 142 190.272 141.642 189.637 141.007C189.002 140.371 188.645 139.51 188.644 138.611V93.1973C188.645 92.2985 189.002 91.4367 189.637 90.8012C190.272 90.1656 191.132 89.8081 192.03 89.807H374.856C375.753 89.8081 376.614 90.1656 377.249 90.8012C377.883 91.4367 378.24 92.2985 378.241 93.1973V138.611C378.24 139.51 377.883 140.371 377.249 141.007C376.614 141.642 375.753 142 374.856 142.001V142.001ZM192.03 91.1631C191.491 91.1637 190.975 91.3782 190.594 91.7596C190.213 92.1409 189.999 92.658 189.998 93.1973V138.611C189.999 139.15 190.213 139.667 190.594 140.048C190.975 140.43 191.491 140.644 192.03 140.645H374.856C375.394 140.644 375.911 140.43 376.292 140.048C376.672 139.667 376.887 139.15 376.887 138.611V93.1973C376.887 92.658 376.672 92.1409 376.292 91.7596C375.911 91.3782 375.394 91.1637 374.856 91.1631L192.03 91.1631Z" fill="#E6E6E6"/>
<path d="M220.437 127.972C228.054 127.972 234.228 121.789 234.228 114.161C234.228 106.534 228.054 100.351 220.437 100.351C212.82 100.351 206.646 106.534 206.646 114.161C206.646 121.789 212.82 127.972 220.437 127.972Z" fill="#E6E6E6"/>
<path d="M252.289 104.955C251.986 104.954 251.687 105.013 251.408 105.129C251.128 105.244 250.875 105.414 250.661 105.627C250.447 105.841 250.277 106.095 250.162 106.375C250.046 106.654 249.986 106.954 249.986 107.256C249.986 107.559 250.046 107.858 250.162 108.138C250.277 108.417 250.447 108.671 250.661 108.885C250.875 109.099 251.128 109.268 251.408 109.384C251.687 109.499 251.986 109.558 252.289 109.558H360.649C361.259 109.558 361.844 109.315 362.275 108.884C362.706 108.452 362.948 107.867 362.948 107.256C362.948 106.646 362.706 106.06 362.275 105.629C361.844 105.197 361.259 104.955 360.649 104.955H252.289Z" fill="#E6E6E6"/>
<path d="M252.289 118.765C251.679 118.765 251.095 119.007 250.663 119.439C250.232 119.871 249.99 120.456 249.99 121.067C249.99 121.677 250.232 122.263 250.663 122.694C251.095 123.126 251.679 123.368 252.289 123.368H298.917C299.526 123.368 300.111 123.126 300.542 122.694C300.973 122.263 301.215 121.677 301.215 121.067C301.215 120.456 300.973 119.871 300.542 119.439C300.111 119.007 299.526 118.765 298.917 118.765H252.289Z" fill="#E6E6E6"/>
<path d="M151.201 119.696L117.404 137.689L116.977 122.695C128.008 120.851 138.503 117.64 148.207 112.413L151.741 103.669C152.126 102.716 152.752 101.879 153.558 101.242C154.363 100.605 155.32 100.188 156.335 100.033C157.35 99.8775 158.388 99.9892 159.346 100.357C160.305 100.725 161.152 101.336 161.803 102.13V102.13C162.756 103.292 163.233 104.774 163.136 106.275C163.039 107.776 162.377 109.184 161.282 110.213L151.201 119.696Z" fill="#FFB8B8"/>
<path d="M68.6221 223.578C68.3755 222.673 68.3232 221.725 68.4685 220.798C68.6138 219.871 68.9534 218.985 69.4651 218.199L76.8893 206.789C78.6453 204.091 81.3397 202.141 84.4498 201.32C87.5599 200.498 90.864 200.863 93.7208 202.343V202.343C90.6007 207.661 91.0356 212.326 94.7984 216.381C88.9571 219.237 83.5584 222.922 78.7695 227.323C77.8953 227.92 76.8913 228.299 75.8411 228.429C74.791 228.558 73.7251 228.435 72.7323 228.068C71.7396 227.702 70.8486 227.103 70.1336 226.322C69.4186 225.541 68.9004 224.6 68.6221 223.578V223.578Z" fill="#2F2E41"/>
<path d="M152.741 208.66C151.617 210.535 150.031 212.089 148.135 213.174C146.239 214.259 144.097 214.837 141.913 214.853L92.5917 215.228L90.4526 202.804L112.271 196.378L93.8751 182.241L113.982 158.68L150.503 192.765C152.637 194.757 154.024 197.423 154.431 200.316C154.839 203.209 154.242 206.155 152.741 208.66V208.66Z" fill="#2F2E41"/>
<path d="M84.8908 293.623H73.3399C62.969 222.437 52.4124 151.052 83.6074 124.408L120.399 130.406L115.693 161.678L95.1582 185.24L84.8908 293.623Z" fill="#2F2E41"/>
<path d="M95.0448 309.749C94.1405 309.996 93.1943 310.049 92.2684 309.903C91.3424 309.758 90.4577 309.418 89.6724 308.905L77.1306 307.217C74.4356 305.459 72.4889 302.761 71.6682 299.647C70.8475 296.532 71.2113 293.224 72.6891 290.363C78.0004 293.487 82.6595 293.051 86.7083 289.283C89.5691 295.067 94.2826 294.715 98.7842 299.588C99.3803 300.463 99.7588 301.468 99.8883 302.52C100.018 303.572 99.8944 304.639 99.5286 305.633C99.1627 306.627 98.5649 307.519 97.785 308.235C97.005 308.951 96.0655 309.47 95.0448 309.749V309.749Z" fill="#2F2E41"/>
<path d="M112.271 76.8567L90.8804 71.716C94.433 64.4342 94.7255 56.3316 93.0194 47.726L107.565 47.2976C108.021 57.9989 109.399 67.9966 112.271 76.8567Z" fill="#FFB8B8"/>
<path d="M118.149 143.304C102.578 153.93 91.5755 143.668 83.1795 127.835C84.3461 118.147 82.4571 106.554 78.9584 93.956C77.4024 88.3996 77.9833 82.461 80.5864 77.3125C83.1896 72.1641 87.6257 68.18 93.019 66.1469V66.1469L111.415 73.8579C127.035 86.6075 130.109 100.418 124.249 114.984L118.149 143.304Z" fill="#BC3838"/>
<path d="M73.3402 87.5665L56.2279 96.5628L86.6023 114.555L90.8287 124.995C91.1107 125.691 91.2482 126.438 91.2325 127.19C91.2169 127.942 91.0486 128.682 90.7378 129.367C90.427 130.051 89.9802 130.665 89.4247 131.171C88.8693 131.677 88.2168 132.064 87.507 132.309V132.309C86.7001 132.588 85.8398 132.676 84.9934 132.566C84.147 132.456 83.3374 132.151 82.6282 131.676C81.919 131.2 81.3294 130.567 80.9055 129.825C80.4815 129.083 80.2349 128.253 80.1847 127.4L79.7573 120.124L41.1519 107.367C39.8512 106.937 38.6652 106.217 37.6838 105.26C36.7023 104.303 35.9512 103.135 35.4872 101.845V101.845C34.811 99.9638 34.7765 97.9112 35.3894 96.0085C36.0022 94.1057 37.2276 92.46 38.874 91.329L69.9178 70.0024L73.3402 87.5665Z" fill="#FFB8B8"/>
<path d="M90.4522 89.2801C83.3153 86.1481 76.8255 89.5504 68.634 92.2788L67.3506 69.574C75.4844 65.2329 83.2395 64.0624 90.4522 67.4321L90.4522 89.2801Z" fill="#BC3838"/>
<path d="M98.99 58.544C106.532 58.544 112.647 52.4212 112.647 44.8684C112.647 37.3155 106.532 31.1927 98.99 31.1927C91.4474 31.1927 85.333 37.3155 85.333 44.8684C85.333 52.4212 91.4474 58.544 98.99 58.544Z" fill="#FFB8B8"/>
<path d="M115.328 43.1429C101.806 44.4691 91.5029 42.2546 84.918 35.9495V30.8717H114.18L115.328 43.1429Z" fill="#2F2E41"/>
</g>
<defs>
<clipPath id="clip0">
<rect width="455" height="317" fill="white"/>
</clipPath>
</defs>
</svg>
