<svg width="647" height="469" viewBox="0 0 647 469" fill="none" xmlns="http://www.w3.org/2000/svg">
<path d="M412.301 351.595V464.652H129.065C96.7945 464.652 70.5386 439.292 70.5386 408.123C70.5386 376.954 96.7944 351.595 129.065 351.595H412.301Z" fill="#F2F2F2"/>
<path d="M419.258 463.782C419.258 464.935 418.799 466.041 417.984 466.856C417.169 467.672 416.063 468.13 414.91 468.13H124.021C108.222 468.13 93.0705 461.854 81.8991 450.682C70.7277 439.51 64.4517 424.358 64.4517 408.558C64.4517 392.759 70.7277 377.606 81.8991 366.434C93.0705 355.262 108.222 348.986 124.021 348.986H414.91C416.063 348.986 417.169 349.444 417.985 350.259C418.8 351.075 419.258 352.181 419.258 353.334C419.258 354.487 418.8 355.593 417.985 356.409C417.169 357.224 416.063 357.683 414.91 357.683H124.021C110.529 357.683 97.5888 363.043 88.0482 372.584C78.5077 382.125 73.1479 395.065 73.1479 408.558C73.1479 422.051 78.5077 434.992 88.0482 444.533C97.5888 454.074 110.529 459.434 124.021 459.434H414.91C416.063 459.434 417.169 459.892 417.984 460.708C418.799 461.523 419.258 462.629 419.258 463.782Z" fill="#24768C"/>
<path d="M412.301 377.685H107.933C107.702 377.685 107.481 377.593 107.318 377.43C107.155 377.267 107.063 377.046 107.063 376.815C107.063 376.585 107.155 376.363 107.318 376.2C107.481 376.037 107.702 375.946 107.933 375.946H412.301C412.532 375.946 412.753 376.037 412.916 376.2C413.079 376.363 413.171 376.585 413.171 376.815C413.171 377.046 413.079 377.267 412.916 377.43C412.753 377.593 412.532 377.685 412.301 377.685Z" fill="#CCCCCC"/>
<path d="M412.301 398.557H107.933C107.702 398.557 107.481 398.465 107.318 398.302C107.155 398.139 107.063 397.918 107.063 397.687C107.063 397.457 107.155 397.235 107.318 397.072C107.481 396.909 107.702 396.818 107.933 396.818H412.301C412.532 396.818 412.753 396.909 412.916 397.072C413.079 397.235 413.171 397.457 413.171 397.687C413.171 397.918 413.079 398.139 412.916 398.302C412.753 398.465 412.532 398.557 412.301 398.557Z" fill="#CCCCCC"/>
<path d="M412.301 419.429H107.933C107.702 419.429 107.481 419.337 107.318 419.174C107.155 419.011 107.063 418.79 107.063 418.559C107.063 418.329 107.155 418.108 107.318 417.944C107.481 417.781 107.702 417.69 107.933 417.69H412.301C412.532 417.69 412.753 417.781 412.916 417.944C413.079 418.108 413.171 418.329 413.171 418.559C413.171 418.79 413.079 419.011 412.916 419.174C412.753 419.337 412.532 419.429 412.301 419.429Z" fill="#CCCCCC"/>
<path d="M412.301 440.301H107.933C107.702 440.301 107.481 440.209 107.318 440.046C107.155 439.883 107.063 439.662 107.063 439.431C107.063 439.201 107.155 438.979 107.318 438.816C107.481 438.653 107.702 438.562 107.933 438.562H412.301C412.532 438.562 412.753 438.653 412.916 438.816C413.079 438.979 413.171 439.201 413.171 439.431C413.171 439.662 413.079 439.883 412.916 440.046C412.753 440.209 412.532 440.301 412.301 440.301Z" fill="#CCCCCC"/>
<path d="M631.2 372.876L560.27 460.911L339.72 283.195C314.591 262.946 310.057 226.725 329.612 202.454C349.167 178.183 385.522 174.911 410.651 195.159L631.2 372.876Z" fill="#F2F2F2"/>
<path d="M566.233 464.599C565.509 465.497 564.458 466.071 563.312 466.194C562.165 466.317 561.017 465.98 560.119 465.257L333.609 282.738C321.307 272.825 313.446 258.431 311.756 242.722C310.067 227.013 314.686 211.276 324.599 198.973C334.511 186.67 348.905 178.809 364.613 177.12C380.321 175.43 396.057 180.049 408.359 189.962L634.869 372.482C635.314 372.84 635.684 373.282 635.958 373.783C636.232 374.285 636.404 374.835 636.466 375.403C636.527 375.971 636.476 376.545 636.315 377.093C636.154 377.642 635.887 378.153 635.528 378.597C635.17 379.042 634.727 379.412 634.226 379.686C633.725 379.96 633.174 380.132 632.606 380.193C632.038 380.254 631.464 380.202 630.916 380.041C630.368 379.88 629.857 379.612 629.412 379.254L402.903 196.734C397.701 192.539 391.724 189.41 385.312 187.526C378.901 185.642 372.181 185.039 365.537 185.753C358.893 186.466 352.454 188.482 346.589 191.684C340.724 194.887 335.547 199.213 331.355 204.417C327.162 209.621 324.035 215.6 322.154 222.012C320.272 228.424 319.672 235.145 320.388 241.789C321.104 248.433 323.122 254.871 326.327 260.736C329.532 266.6 333.86 271.775 339.065 275.966L565.575 458.485C566.472 459.209 567.046 460.26 567.169 461.406C567.293 462.553 566.956 463.701 566.233 464.599Z" fill="#CCCCCC"/>
<path d="M614.832 393.192L377.826 202.215C377.737 202.144 377.663 202.055 377.608 201.955C377.554 201.855 377.519 201.745 377.507 201.631C377.495 201.518 377.505 201.403 377.537 201.293C377.569 201.184 377.623 201.081 377.694 200.992C377.766 200.904 377.855 200.83 377.955 200.775C378.055 200.72 378.165 200.686 378.279 200.673C378.392 200.661 378.507 200.671 378.617 200.704C378.726 200.736 378.828 200.789 378.917 200.861L615.923 391.838C616.012 391.909 616.086 391.998 616.141 392.098C616.196 392.198 616.23 392.308 616.243 392.422C616.255 392.536 616.245 392.651 616.213 392.76C616.18 392.87 616.127 392.972 616.055 393.061C615.983 393.15 615.895 393.224 615.795 393.279C615.694 393.334 615.584 393.368 615.471 393.38C615.357 393.393 615.242 393.382 615.132 393.35C615.023 393.318 614.92 393.264 614.832 393.192V393.192Z" fill="#CCCCCC"/>
<path d="M601.737 409.445L364.731 218.468C364.552 218.323 364.438 218.113 364.413 217.884C364.389 217.655 364.456 217.425 364.601 217.246C364.745 217.066 364.955 216.952 365.184 216.927C365.413 216.902 365.643 216.969 365.823 217.114L602.828 408.09C602.917 408.162 602.991 408.25 603.046 408.351C603.101 408.451 603.136 408.561 603.148 408.675C603.16 408.788 603.15 408.903 603.118 409.013C603.086 409.123 603.032 409.225 602.961 409.314C602.889 409.403 602.8 409.477 602.7 409.532C602.6 409.586 602.49 409.621 602.376 409.633C602.262 409.645 602.147 409.635 602.038 409.602C601.928 409.57 601.826 409.517 601.737 409.445Z" fill="#CCCCCC"/>
<path d="M588.642 425.698L351.637 234.721C351.457 234.576 351.342 234.366 351.317 234.137C351.293 233.907 351.36 233.677 351.505 233.498C351.65 233.318 351.86 233.203 352.089 233.179C352.318 233.154 352.548 233.222 352.728 233.366L589.733 424.343C589.822 424.415 589.896 424.503 589.951 424.604C590.006 424.704 590.04 424.814 590.052 424.927C590.065 425.041 590.054 425.156 590.022 425.265C589.99 425.375 589.937 425.477 589.865 425.566C589.793 425.655 589.705 425.729 589.605 425.784C589.504 425.838 589.394 425.873 589.281 425.885C589.167 425.897 589.052 425.887 588.943 425.855C588.833 425.823 588.731 425.769 588.642 425.698V425.698Z" fill="#CCCCCC"/>
<path d="M575.547 441.95L338.541 250.973C338.452 250.902 338.378 250.813 338.324 250.713C338.269 250.613 338.234 250.503 338.222 250.389C338.21 250.276 338.22 250.161 338.253 250.051C338.285 249.942 338.338 249.839 338.41 249.751C338.481 249.662 338.57 249.588 338.67 249.533C338.77 249.478 338.88 249.444 338.994 249.432C339.107 249.419 339.222 249.43 339.332 249.462C339.441 249.494 339.544 249.547 339.633 249.619L576.638 440.596C576.727 440.667 576.801 440.756 576.856 440.856C576.911 440.956 576.946 441.066 576.958 441.18C576.97 441.294 576.96 441.409 576.928 441.518C576.896 441.628 576.842 441.73 576.77 441.819C576.699 441.908 576.61 441.982 576.51 442.037C576.41 442.092 576.299 442.126 576.186 442.138C576.072 442.151 575.957 442.14 575.848 442.108C575.738 442.076 575.636 442.022 575.547 441.95Z" fill="#CCCCCC"/>
<path d="M646.13 469H0.869624C0.638985 469 0.417792 468.908 0.254706 468.745C0.0916201 468.582 0 468.361 0 468.13C0 467.9 0.0916201 467.679 0.254706 467.515C0.417792 467.352 0.638985 467.261 0.869624 467.261H646.13C646.361 467.261 646.582 467.352 646.745 467.515C646.908 467.679 647 467.9 647 468.13C647 468.361 646.908 468.582 646.745 468.745C646.582 468.908 646.361 469 646.13 469Z" fill="#CCCCCC"/>
<path d="M294.003 339.712L284.062 339.711L279.333 301.362L294.007 301.364L294.003 339.712Z" fill="#FFB8B8"/>
<path d="M276.96 336.87H296.133V348.943H264.888C264.888 347.357 265.2 345.788 265.807 344.323C266.413 342.858 267.302 341.527 268.423 340.406C269.544 339.285 270.875 338.396 272.34 337.789C273.805 337.182 275.374 336.87 276.96 336.87Z" fill="#77508C"/>
<path d="M192.435 339.712L182.494 339.711L177.766 301.362L192.439 301.364L192.435 339.712Z" fill="#FFB8B8"/>
<path d="M175.392 336.87H194.566V348.943H163.32C163.32 347.357 163.633 345.788 164.239 344.323C164.846 342.858 165.735 341.527 166.856 340.406C167.977 339.285 169.308 338.396 170.773 337.789C172.237 337.182 173.807 336.87 175.392 336.87Z" fill="#77508C"/>
<path d="M225.642 55.2527V50.9044C225.642 43.4659 228.597 36.3321 233.856 31.0723C239.116 25.8125 246.249 22.8575 253.687 22.8575C261.126 22.8575 268.259 25.8125 273.519 31.0723C278.778 36.3321 281.733 43.4659 281.733 50.9044V55.2527C281.733 60.6154 279.603 65.7584 275.811 69.5503C272.019 73.3423 266.876 75.4725 261.514 75.4725H245.861C243.206 75.4725 240.577 74.9496 238.124 73.9334C235.67 72.9173 233.442 71.4279 231.564 69.5503C229.687 67.6727 228.197 65.4437 227.181 62.9905C226.165 60.5374 225.642 57.9081 225.642 55.2527Z" fill="#E8571B"/>
<path d="M253.687 76.9687C265.484 76.9687 275.046 67.4055 275.046 55.6087C275.046 43.812 265.484 34.2488 253.687 34.2488C241.891 34.2488 232.329 43.812 232.329 55.6087C232.329 67.4055 241.891 76.9687 253.687 76.9687Z" fill="#FFB8B8"/>
<path d="M137.509 129.02C138.376 128.202 139.411 127.583 140.543 127.208C141.675 126.833 142.875 126.711 144.059 126.85C145.243 126.989 146.382 127.386 147.396 128.013C148.41 128.64 149.274 129.482 149.927 130.479L168.237 127.015L173.055 137.629L147.13 142.157C145.382 143.144 143.333 143.456 141.371 143.033C139.409 142.61 137.671 141.482 136.485 139.862C135.299 138.243 134.748 136.245 134.937 134.247C135.126 132.248 136.041 130.389 137.509 129.02V129.02Z" fill="#FFB8B8"/>
<path d="M237.036 90.4205L237.275 90.7834L207.251 110.563L156.588 126.742C155.916 126.958 155.34 127.4 154.958 127.993C154.576 128.585 154.41 129.292 154.49 129.993L155.596 139.513C155.645 139.934 155.781 140.341 155.996 140.706C156.212 141.072 156.501 141.388 156.846 141.635C157.19 141.883 157.583 142.055 157.998 142.142C158.413 142.228 158.842 142.227 159.257 142.138L206.938 131.917C209.246 131.425 211.428 130.465 213.349 129.095L247.079 105.095C248.302 104.22 249.278 103.043 249.912 101.68C250.545 100.316 250.815 98.812 250.696 97.3132C250.572 95.8123 250.06 94.3695 249.209 93.1267C248.359 91.8839 247.2 90.8839 245.846 90.225C244.491 89.5662 242.989 89.2712 241.486 89.3691C239.984 89.467 238.532 89.9544 237.275 90.7834L237.036 90.4205Z" fill="#777E9C"/>
<path d="M284.239 328.829C283.476 328.829 282.73 328.607 282.091 328.19C281.452 327.773 280.948 327.179 280.641 326.48L235.064 213.857C234.958 213.613 234.779 213.407 234.552 213.267C234.325 213.128 234.061 213.061 233.795 213.076C233.529 213.091 233.274 213.187 233.064 213.351C232.855 213.515 232.7 213.74 232.622 213.995L195.438 323.637C195.281 324.147 195.022 324.62 194.675 325.026C194.329 325.432 193.903 325.763 193.424 325.999C192.945 326.234 192.423 326.369 191.889 326.396C191.356 326.422 190.823 326.339 190.323 326.151L177.854 321.475C177.178 321.224 176.584 320.789 176.139 320.221C175.694 319.652 175.416 318.971 175.335 318.253C169.726 269.385 218.642 146.033 219.137 144.793L219.274 144.45L263.866 154.314L263.959 154.415C281.749 173.824 296.373 296.243 299.124 320.586C299.226 321.465 299.026 322.353 298.556 323.104C298.087 323.854 297.375 324.422 296.54 324.714L285.534 328.607C285.118 328.754 284.68 328.829 284.239 328.829Z" fill="#363B4F"/>
<path d="M245.819 158.285C235.015 158.285 222.97 156.13 219.262 147.239L219.177 147.035L219.292 146.846C222.219 142.044 226.087 133.852 224.008 132.315C219.912 129.287 217.925 124.305 218.102 117.508C218.485 102.754 228.538 89.6538 243.117 84.911C247.187 83.6085 251.328 82.5422 255.521 81.7172C258.577 81.1005 261.732 81.1683 264.759 81.9159C267.786 82.6635 270.61 84.0722 273.028 86.0409C275.477 88.0226 277.456 90.5219 278.824 93.3595C280.191 96.197 280.914 99.3023 280.938 102.452C281.091 118.22 278.664 140.181 266.231 155.259C265.649 155.958 264.838 156.43 263.942 156.59C257.96 157.672 251.897 158.239 245.819 158.285Z" fill="#3A3D53"/>
<path d="M241.8 157.694C242.388 155.585 243.784 153.793 245.686 152.708C247.588 151.623 249.841 151.332 251.956 151.899C252.388 152.019 252.809 152.175 253.215 152.365L267.117 139.712L276.786 146.226L256.905 163.821C256.007 165.439 254.594 166.711 252.89 167.434C251.186 168.157 249.289 168.289 247.501 167.809C246.46 167.524 245.485 167.036 244.634 166.372C243.782 165.708 243.071 164.882 242.541 163.941C242.011 163 241.672 161.964 241.545 160.892C241.418 159.82 241.505 158.733 241.8 157.694Z" fill="#FFB8B8"/>
<path d="M264.915 157.855C264.013 157.855 263.138 157.543 262.44 156.972L256.958 152.492C256.501 152.118 256.134 151.646 255.886 151.111C255.637 150.576 255.512 149.991 255.521 149.401C255.531 148.811 255.673 148.23 255.938 147.703C256.203 147.176 256.585 146.715 257.053 146.356L280.047 128.719C280.32 128.509 280.498 128.2 280.545 127.859C280.591 127.518 280.501 127.173 280.294 126.898L266.101 108.133C264.452 105.961 263.625 103.274 263.766 100.55C263.908 97.8264 265.008 95.2403 266.873 93.2497C268.837 91.1284 271.526 89.8231 274.408 89.5926C277.289 89.3621 280.152 90.2234 282.428 92.0055L282.518 92.1002L297.338 113.322C298.941 114.579 300.231 116.189 301.109 118.027C301.986 119.864 302.427 121.88 302.397 123.916C302.366 125.953 301.866 127.955 300.934 129.765C300.002 131.576 298.664 133.147 297.025 134.356L267.244 157.088C266.57 157.586 265.754 157.855 264.915 157.855Z" fill="#777E9C"/>
<path d="M234.768 49.5999V39.002L253.687 30.7401L271.727 39.002V49.5999C271.727 50.0612 271.544 50.5036 271.218 50.8298C270.892 51.156 270.449 51.3392 269.988 51.3392H236.507C236.046 51.3392 235.604 51.156 235.277 50.8298C234.951 50.5036 234.768 50.0612 234.768 49.5999Z" fill="#D83D13"/>
<path d="M252.819 24.2634C250.037 15.3593 255.879 5.15477 264.516 1.63029C273.153 -1.89419 283.485 0.56953 290.773 6.3925C298.061 12.2155 302.582 20.9372 304.978 29.9528C307.374 38.9685 307.829 48.3697 308.271 57.6877C318.882 59.637 326.101 72.2236 322.425 82.3675C318.749 92.5113 305.143 97.5508 295.747 92.2489C286.35 86.947 283.629 72.6948 290.41 64.3033C293.619 60.3326 295.412 55.4048 295.504 50.3003C295.596 45.1959 293.983 40.2065 290.919 36.1226C287.856 32.0386 283.518 29.0934 278.592 27.7536C273.665 26.4137 268.433 26.7557 263.723 28.7254C258.494 30.9125 251.932 25.2298 252.819 24.2634Z" fill="#E8561A"/>
<path d="M133.587 87.9085C120.882 87.8251 108.336 85.0772 96.7598 79.8424C96.0706 79.5353 95.4857 79.0343 95.0763 78.4006C94.6668 77.7669 94.4505 77.0278 94.4536 76.2733V44.6017C94.4548 43.5642 94.8675 42.5694 95.6011 41.8357C96.3347 41.1021 97.3294 40.6894 98.367 40.6882H168.806C169.844 40.6894 170.839 41.1021 171.572 41.8358C172.306 42.5694 172.719 43.5642 172.72 44.6017V76.2733C172.723 77.0278 172.507 77.7669 172.097 78.4006C171.688 79.0343 171.103 79.5353 170.414 79.8425C158.837 85.0772 146.291 87.8251 133.587 87.9085Z" fill="#24768C"/>
<path d="M133.577 62.2508C133.055 62.2512 132.538 62.1473 132.056 61.945L76.1987 38.3774C75.4784 38.0735 74.8656 37.5608 74.4394 36.9053C74.0131 36.2499 73.793 35.4819 73.8073 34.7002C73.8216 33.9184 74.0698 33.1589 74.5198 32.5196C74.9697 31.8802 75.6009 31.3903 76.3319 31.113L132.19 9.92117C133.09 9.57828 134.085 9.58039 134.983 9.92712L190.093 31.1189C190.82 31.3984 191.446 31.8885 191.893 32.5263C192.34 33.1641 192.586 33.9208 192.601 34.6994C192.615 35.478 192.397 36.2433 191.974 36.8972C191.551 37.5511 190.943 38.0639 190.227 38.3701L135.116 61.9374C134.63 62.1446 134.106 62.2513 133.577 62.2508Z" fill="#24768C"/>
<path d="M100.976 81.9976C103.857 81.9976 106.193 79.6614 106.193 76.7795C106.193 73.8977 103.857 71.5615 100.976 71.5615C98.0939 71.5615 95.7578 73.8977 95.7578 76.7795C95.7578 79.6614 98.0939 81.9976 100.976 81.9976Z" fill="#3F3D56"/>
<path opacity="0.2" d="M190.417 35.0248L135.306 58.5922C134.877 58.7759 134.415 58.8712 133.947 58.8723C133.48 58.8734 133.017 58.7804 132.587 58.5987L76.7291 35.0317C76.0276 34.7428 75.4424 34.2284 75.0659 33.5698C74.8196 33.9969 74.667 34.4715 74.6182 34.9621C74.5693 35.4527 74.6254 35.9481 74.7828 36.4154C74.9401 36.8827 75.195 37.3112 75.5305 37.6724C75.8661 38.0336 76.2747 38.3192 76.7291 38.5104L132.587 62.0774C133.017 62.2591 133.48 62.3521 133.947 62.351C134.415 62.3498 134.877 62.2546 135.306 62.0708L190.417 38.5035C190.869 38.3107 191.275 38.0241 191.609 37.6627C191.942 37.3013 192.195 36.8734 192.35 36.4071C192.506 35.9409 192.561 35.4469 192.512 34.9578C192.463 34.4687 192.31 33.9956 192.065 33.5697C191.691 34.2231 191.112 34.7346 190.417 35.0248Z" fill="black"/>
<path d="M101.414 76.7591C101.645 76.7591 101.866 76.6675 102.029 76.5044C102.192 76.3413 102.284 76.1201 102.284 75.8894V46.7891L130.965 36.3399C131.196 36.3434 131.418 36.255 131.584 36.0944C131.749 35.9337 131.844 35.7139 131.848 35.4832C131.851 35.2526 131.763 35.03 131.602 34.8645C131.441 34.6989 131.221 34.604 130.991 34.6006L102.31 45.0498C102.079 45.0445 101.849 45.0861 101.635 45.172C101.421 45.258 101.226 45.3866 101.063 45.55C100.898 45.7114 100.767 45.9042 100.678 46.1171C100.589 46.3299 100.544 46.5584 100.544 46.7891V75.8894C100.544 76.1201 100.636 76.3413 100.799 76.5044C100.962 76.6675 101.183 76.7591 101.414 76.7591Z" fill="#3F3D56"/>
</svg>
