<svg width="686" height="482" viewBox="0 0 686 482" fill="none" xmlns="http://www.w3.org/2000/svg">
<path d="M290 450.921C450.163 450.921 580 444.183 580 435.871C580 427.558 450.163 420.82 290 420.82C129.837 420.82 0 427.558 0 435.871C0 444.183 129.837 450.921 290 450.921Z" fill="#3F3D56"/>
<path d="M572.5 466.975C635.184 466.975 686 464.28 686 460.955C686 457.63 635.184 454.935 572.5 454.935C509.816 454.935 459 457.63 459 460.955C459 464.28 509.816 466.975 572.5 466.975Z" fill="#3F3D56"/>
<path d="M252.5 481.022C315.184 481.022 366 478.552 366 475.504C366 472.456 315.184 469.985 252.5 469.985C189.816 469.985 139 472.456 139 475.504C139 478.552 189.816 481.022 252.5 481.022Z" fill="#3F3D56"/>
<path d="M530 302.422L540.162 295.358L561.224 268.244C561.824 267.471 562.093 266.491 561.971 265.519C561.849 264.548 561.346 263.664 560.573 263.064C559.8 262.463 558.82 262.194 557.849 262.316C556.877 262.438 555.994 262.941 555.394 263.714L534.332 290.828L530 302.422Z" fill="#2F2E41"/>
<path d="M614.846 61.6918C614.846 61.6918 601.964 50.0374 584.64 72.0015C567.316 93.9655 540.219 104.723 534 113.24C534 113.24 559.764 102.482 568.648 97.9997C577.533 93.5173 577.088 94.4137 577.088 94.4137C577.088 94.4137 565.095 102.93 562.874 111.447C560.653 119.964 562.429 127.136 558.432 135.652C554.434 144.169 634.836 141.48 634.836 141.48C634.836 141.48 642.831 127.584 640.61 113.24C638.389 98.8962 639.722 63.4848 614.846 61.6918Z" fill="#2F2E41"/>
<path d="M589.415 95.7275C589.415 95.7275 592.506 118.034 579.259 123.041C566.012 128.049 570.869 134.877 570.869 134.877L590.74 144.893L611.935 138.064L619 127.139C619 127.139 607.519 124.407 610.61 116.213C613.701 108.019 614.584 105.287 614.584 105.287L589.415 95.7275Z" fill="#FFB9B9"/>
<path opacity="0.1" d="M589.415 95.7275C589.415 95.7275 592.506 118.034 579.259 123.041C566.012 128.049 570.869 134.877 570.869 134.877L590.74 144.893L611.935 138.064L619 127.139C619 127.139 607.519 124.407 610.61 116.213C613.701 108.019 614.584 105.287 614.584 105.287L589.415 95.7275Z" fill="black"/>
<path d="M565.259 262.287C565.259 262.287 550.565 317.677 551.01 344.707C551.455 371.737 557.244 409.401 557.244 409.401C557.244 409.401 558.135 425.796 556.799 427.569C555.463 429.341 563.478 436.874 563.478 436.874L571.939 432L575.056 428.455V425.353C575.056 425.353 570.158 410.287 574.165 398.323C578.173 386.359 580.399 356.228 576.392 346.922L604 265.389L565.259 262.287Z" fill="#FFB9B9"/>
<path d="M564.754 429.772C564.754 429.772 559.486 423.066 555.973 425.301C552.46 427.536 546.753 442.737 546.753 442.737C546.753 442.737 526.994 461.961 541.045 462.855C555.095 463.749 561.242 458.831 562.998 455.255C564.754 451.678 581 442.29 581 442.29C581 442.29 579.244 425.301 576.609 424.854C573.975 424.407 570.023 431.56 570.023 431.56L564.754 429.772Z" fill="#2F2E41"/>
<path d="M614.117 266.49V321.186C614.167 327.822 614.605 334.45 615.427 341.035C616.738 350.739 608 423.079 608 423.079L608.874 435.871L619.796 434.988L621.107 423.961L636.835 375.44C636.835 375.44 642.078 345.887 639.456 334.86C636.835 323.832 653 253.257 653 253.257L614.117 266.49Z" fill="#FFB9B9"/>
<path d="M604.923 433.75L608.137 433.061C608.137 433.061 610.565 427.765 613.603 429.047C615.74 430.018 617.765 431.214 619.643 432.613L620.98 435.032C620.98 435.032 624.017 441.445 627.923 445.719C631.828 449.994 636.168 459.399 629.659 460.254C623.149 461.109 614.47 461.537 611.867 459.399C609.263 457.262 610.999 453.842 608.395 452.987C605.791 452.132 603.622 449.567 604.056 448.712C604.49 447.857 604.923 433.75 604.923 433.75Z" fill="#2F2E41"/>
<path d="M606.5 113.788C618.374 113.788 628 104.13 628 92.2156C628 80.3014 618.374 70.6431 606.5 70.6431C594.626 70.6431 585 80.3014 585 92.2156C585 104.13 594.626 113.788 606.5 113.788Z" fill="#FFB9B9"/>
<path d="M570 126.847L575.837 124.825C575.837 124.825 573.535 128.6 585.907 130.792C598.279 132.983 611.092 133.759 616.837 126.577C616.837 126.577 619.046 125.532 622.14 128.6C625.233 131.668 627 130.792 627 130.792L624.791 142.188L620.372 163.228L614.628 179.007L598.279 175.501L580.605 162.789L573.977 145.695V129.915L570 126.847Z" fill="#6C63FF"/>
<path d="M623.743 132.402L628.147 129.311C628.147 129.311 643.119 131.96 644 139.025L632.55 161.102C634.886 167.244 634.728 174.06 632.11 180.088C627.706 190.243 628.147 192.45 628.147 192.45L625.064 205.696L569.138 210.112C569.138 210.112 566.936 204.813 566.055 203.93C565.174 203.047 565.174 199.957 566.055 199.957C566.936 199.957 566.055 198.632 565.174 197.307C564.294 195.983 563.853 195.541 565.174 193.775C566.495 192.009 562.972 176.114 562.972 176.114V158.894L548 139.025C548 139.025 553.284 131.077 555.927 130.194C558.569 129.311 571.138 125.829 571.138 125.829L573.982 130.027L577.945 161.985L583.67 181.412L607.774 177.306L617.138 161.543L623.303 142.999L623.743 132.402Z" fill="#6C63FF"/>
<path d="M640.084 135.862L643.627 138.518C643.627 138.518 646.727 163.308 645.841 165.079C644.955 166.85 629.455 168.62 629.012 167.735C628.57 166.85 640.084 135.862 640.084 135.862Z" fill="#6C63FF"/>
<path d="M551.086 145.896C551.086 145.896 554.315 186.519 553.393 188.285C552.47 190.051 553.393 251.427 553.393 251.427C553.393 251.427 546.935 284.544 555.238 286.31C563.542 288.076 561.696 249.219 561.696 249.219L570 197.999L569.077 147.221L551.086 145.896Z" fill="#FFB9B9"/>
<path d="M573.951 106.521L578.375 135.615C578.375 135.615 574.394 178.815 575.278 187.632L576.163 190.277C576.163 190.277 574.394 189.395 573.951 191.158C573.509 192.922 573.951 198.652 573.951 198.652C573.951 198.652 571.296 201.297 570.412 215.844C569.527 230.391 558.908 265.216 562.89 266.538C566.872 267.861 590.764 274.473 603.595 273.151C616.425 271.828 662.439 256.399 661.997 252.432C661.554 248.465 639.432 192.481 639.432 192.481C639.432 192.481 635.45 185.868 635.45 184.987C635.45 184.105 640.76 180.579 639.432 177.052C638.105 173.526 631.026 136.497 631.026 136.497L635.893 110.048L629.256 108.284L624.389 133.852C624.389 133.852 605.364 143.109 585.455 134.733L581.03 104.758L573.951 106.521Z" fill="#2F2E41"/>
<path d="M551.592 137.869L548.099 139.194C548.099 139.194 541.55 167.026 543.296 167.026C545.043 167.026 566 169.677 566 168.793C566 167.91 562.07 146.263 562.07 146.263L551.592 137.869Z" fill="#6C63FF"/>
<path d="M590 72.5454C590 72.5454 623.097 95.306 632.042 85.0414C640.987 74.7768 616.388 65.8511 616.388 65.8511L595.814 63.6196L590 72.5454Z" fill="#2F2E41"/>
<path d="M89 0.406982V431.857H459V0.406982H89ZM108.742 396.116C107.482 396.116 106.251 395.741 105.204 395.04C104.157 394.339 103.34 393.342 102.858 392.176C102.376 391.01 102.25 389.726 102.496 388.488C102.742 387.25 103.348 386.113 104.239 385.22C105.129 384.328 106.264 383.72 107.499 383.474C108.735 383.227 110.015 383.354 111.179 383.837C112.343 384.32 113.337 385.138 114.037 386.188C114.737 387.237 115.11 388.471 115.11 389.733C115.11 391.426 114.439 393.049 113.245 394.246C112.051 395.443 110.431 396.116 108.742 396.116ZM108.742 364.842C107.482 364.842 106.251 364.468 105.204 363.766C104.157 363.065 103.34 362.068 102.858 360.902C102.376 359.736 102.25 358.453 102.496 357.214C102.742 355.976 103.348 354.839 104.239 353.947C105.129 353.054 106.264 352.446 107.499 352.2C108.735 351.954 110.015 352.08 111.179 352.563C112.343 353.046 113.337 353.864 114.037 354.914C114.737 355.963 115.11 357.197 115.11 358.46C115.11 360.152 114.439 361.776 113.245 362.973C112.051 364.17 110.431 364.842 108.742 364.842ZM108.742 334.206C107.482 334.206 106.251 333.832 105.204 333.131C104.157 332.43 103.34 331.433 102.858 330.267C102.376 329.1 102.25 327.817 102.496 326.579C102.742 325.341 103.348 324.204 104.239 323.311C105.129 322.418 106.264 321.811 107.499 321.564C108.735 321.318 110.015 321.444 111.179 321.927C112.343 322.411 113.337 323.229 114.037 324.278C114.737 325.328 115.11 326.562 115.11 327.824C115.11 329.517 114.439 331.14 113.245 332.337C112.051 333.534 110.431 334.206 108.742 334.206ZM108.742 302.933C107.482 302.933 106.251 302.558 105.204 301.857C104.157 301.156 103.34 300.159 102.858 298.993C102.376 297.827 102.25 296.543 102.496 295.305C102.742 294.067 103.348 292.93 104.239 292.037C105.129 291.145 106.264 290.537 107.499 290.291C108.735 290.044 110.015 290.171 111.179 290.654C112.343 291.137 113.337 291.955 114.037 293.004C114.737 294.054 115.11 295.288 115.11 296.55C115.11 298.243 114.439 299.866 113.245 301.063C112.051 302.26 110.431 302.933 108.742 302.933ZM108.742 271.659C107.482 271.659 106.251 271.285 105.204 270.583C104.157 269.882 103.34 268.885 102.858 267.719C102.376 266.553 102.25 265.269 102.496 264.031C102.742 262.793 103.348 261.656 104.239 260.764C105.129 259.871 106.264 259.263 107.499 259.017C108.735 258.771 110.015 258.897 111.179 259.38C112.343 259.863 113.337 260.681 114.037 261.731C114.737 262.78 115.11 264.014 115.11 265.277C115.11 266.969 114.439 268.593 113.245 269.79C112.051 270.987 110.431 271.659 108.742 271.659ZM108.742 241.023C107.482 241.023 106.251 240.649 105.204 239.948C104.157 239.246 103.34 238.25 102.858 237.083C102.376 235.917 102.25 234.634 102.496 233.396C102.742 232.158 103.348 231.021 104.239 230.128C105.129 229.235 106.264 228.628 107.499 228.381C108.735 228.135 110.015 228.261 111.179 228.744C112.343 229.228 113.337 230.046 114.037 231.095C114.737 232.145 115.11 233.379 115.11 234.641C115.11 236.334 114.439 237.957 113.245 239.154C112.051 240.351 110.431 241.023 108.742 241.023ZM108.742 209.75C107.482 209.75 106.251 209.375 105.204 208.674C104.157 207.973 103.34 206.976 102.858 205.81C102.376 204.643 102.25 203.36 102.496 202.122C102.742 200.884 103.348 199.747 104.239 198.854C105.129 197.962 106.264 197.354 107.499 197.108C108.735 196.861 110.015 196.988 111.179 197.471C112.343 197.954 113.337 198.772 114.037 199.821C114.737 200.871 115.11 202.105 115.11 203.367C115.11 205.06 114.439 206.683 113.245 207.88C112.051 209.077 110.431 209.75 108.742 209.75ZM108.742 178.476C107.482 178.476 106.251 178.102 105.204 177.4C104.157 176.699 103.34 175.702 102.858 174.536C102.376 173.37 102.25 172.086 102.496 170.848C102.742 169.61 103.348 168.473 104.239 167.58C105.129 166.688 106.264 166.08 107.499 165.834C108.735 165.587 110.015 165.714 111.179 166.197C112.343 166.68 113.337 167.498 114.037 168.548C114.737 169.597 115.11 170.831 115.11 172.094C115.11 173.786 114.439 175.41 113.245 176.607C112.051 177.803 110.431 178.476 108.742 178.476ZM108.742 147.84C107.482 147.84 106.251 147.466 105.204 146.765C104.157 146.063 103.34 145.067 102.858 143.9C102.376 142.734 102.25 141.451 102.496 140.213C102.742 138.975 103.348 137.838 104.239 136.945C105.129 136.052 106.264 135.445 107.499 135.198C108.735 134.952 110.015 135.078 111.179 135.561C112.343 136.045 113.337 136.863 114.037 137.912C114.737 138.962 115.11 140.196 115.11 141.458C115.11 143.151 114.439 144.774 113.245 145.971C112.051 147.168 110.431 147.84 108.742 147.84ZM108.742 116.567C107.482 116.567 106.251 116.192 105.204 115.491C104.157 114.79 103.34 113.793 102.858 112.627C102.376 111.46 102.25 110.177 102.496 108.939C102.742 107.701 103.348 106.564 104.239 105.671C105.129 104.779 106.264 104.171 107.499 103.924C108.735 103.678 110.015 103.805 111.179 104.288C112.343 104.771 113.337 105.589 114.037 106.638C114.737 107.688 115.11 108.922 115.11 110.184C115.11 111.877 114.439 113.5 113.245 114.697C112.051 115.894 110.431 116.567 108.742 116.567ZM108.742 85.2929C107.482 85.2929 106.251 84.9186 105.204 84.2173C104.157 83.516 103.34 82.5192 102.858 81.3529C102.376 80.1867 102.25 78.9034 102.496 77.6653C102.742 76.4273 103.348 75.29 104.239 74.3975C105.129 73.5049 106.264 72.897 107.499 72.6507C108.735 72.4045 110.015 72.5309 111.179 73.0139C112.343 73.497 113.337 74.315 114.037 75.3646C114.737 76.4142 115.11 77.6482 115.11 78.9105C115.11 80.6032 114.439 82.2266 113.245 83.4235C112.051 84.6205 110.431 85.2929 108.742 85.2929ZM108.742 55.2956C107.482 55.2956 106.251 54.9213 105.204 54.22C104.157 53.5187 103.34 52.5219 102.858 51.3557C102.376 50.1894 102.25 48.9061 102.496 47.6681C102.742 46.43 103.348 45.2928 104.239 44.4002C105.129 43.5076 106.264 42.8997 107.499 42.6535C108.735 42.4072 110.015 42.5336 111.179 43.0167C112.343 43.4997 113.337 44.3178 114.037 45.3673C114.737 46.4169 115.11 47.6509 115.11 48.9132C115.11 50.6059 114.439 52.2293 113.245 53.4263C112.051 54.6232 110.431 55.2956 108.742 55.2956Z" fill="#F2F2F2"/>
<path opacity="0.3" d="M459 33.1729V31.8965H132.786V0.406982H131.512V31.8965H89V33.1729H131.512V62.9545H89V64.231H131.512V94.0125H89V95.289H131.512V125.07H89V126.346H131.512V156.127H89V157.404H131.512V187.185H89V188.462H131.512V218.243H89V219.519H131.512V249.301H89V250.577H131.512V280.358H89V281.635H131.512V311.416H89V312.692H131.512V342.474H89V343.75H131.512V373.531H89V374.807H131.512V404.588H89V405.865H131.512V431.857H132.786V405.865H459V404.588H132.786V374.807H459V373.531H132.786V343.75H459V342.474H132.786V312.692H459V311.416H132.786V281.635H459V280.358H132.786V250.577H459V249.301H132.786V219.519H459V218.243H132.786V188.462H459V187.185H132.786V157.404H459V156.127H132.786V126.346H459V125.07H132.786V95.289H459V94.0125H132.786V64.231H459V62.9545H132.786V33.1729H459Z" fill="#3F3D56"/>
<path d="M164.446 129.287C160.604 132.229 156.476 134.787 152.122 136.923C149.309 138.303 146.187 139.532 143.101 138.953C140.015 138.374 137.245 135.257 138.187 132.295C138.514 131.431 139.065 130.666 139.785 130.079C140.505 129.491 141.369 129.101 142.289 128.947C144.142 128.665 146.037 128.936 147.734 129.724C150.84 131.039 153.432 133.313 155.123 136.204C155.985 137.689 156.661 139.39 158.092 140.353C159.246 141.001 160.538 141.37 161.863 141.432C164.982 141.817 168.182 142.199 171.238 141.47C174.293 140.741 177.221 138.651 178 135.642" stroke="#3F3D56" stroke-width="2" stroke-miterlimit="10"/>
<path d="M188.381 114.792C188.616 124.157 188.489 133.521 188 142.886L194.442 141.63C196.817 141.168 199.519 140.461 200.592 138.227C201.592 136.145 200.64 133.516 198.974 131.951C197.309 130.386 195.089 129.639 192.942 128.934L189.425 127.78" stroke="#3F3D56" stroke-width="2" stroke-miterlimit="10"/>
<path d="M224.23 125.256C221.739 124.922 219.198 124.603 216.723 125.032C214.247 125.46 211.805 126.762 210.664 128.927C208.556 132.925 211.786 137.849 215.878 139.971C219.285 141.723 223.21 142.294 227 141.588" stroke="#3F3D56" stroke-width="2" stroke-miterlimit="10"/>
<path d="M171.208 92.4371C165.069 98.1622 158.931 98.1622 152.792 92.4371C150.302 90.0667 148.326 87.2165 146.987 84.0615C145.647 80.9065 144.971 77.5133 145.001 74.0899V18.4678H178.999V74.0899C179.029 77.5133 178.353 80.9066 177.013 84.0615C175.674 87.2165 173.698 90.0667 171.208 92.4371Z" fill="#BC3838"/>
<path d="M367 273.281C367 325.373 335.887 343.56 297.5 343.56C296.611 343.56 295.722 343.548 294.839 343.528C293.061 343.49 291.295 343.408 289.555 343.287C254.911 340.848 228 321.725 228 273.281C228 223.156 292.363 159.898 297.212 155.207C297.212 155.206 297.212 155.205 297.213 155.204C297.213 155.203 297.213 155.203 297.214 155.202C297.215 155.201 297.215 155.201 297.216 155.201C297.217 155.2 297.218 155.2 297.219 155.2C297.404 155.016 297.5 154.927 297.5 154.927C297.5 154.927 367 221.195 367 273.281Z" fill="#BC3838"/>
<path d="M294.806 335.621L320.11 300.271L294.742 339.505L294.679 343.56C292.909 343.522 291.151 343.439 289.419 343.318L292.145 291.198L292.125 290.791L292.17 290.721L292.431 285.793L267 246.464L292.508 282.1L292.571 283.144L294.628 243.765L272.858 203.124L294.895 236.856L297.041 155.207L297.047 154.927V155.2L296.691 219.583L318.365 194.058L296.602 225.129L296.029 260.389L316.27 226.548L295.946 265.578L295.627 285.182L325 238.079L295.513 292.02L294.806 335.621Z" fill="#3F3D56"/>
</svg>
