<svg width="681" height="523" viewBox="0 0 681 523" fill="none" xmlns="http://www.w3.org/2000/svg">
<g clip-path="url(#clip0)">
<path opacity="0.1" d="M384.326 502.327C520.139 502.327 630.237 494.109 630.237 483.972C630.237 473.834 520.139 465.616 384.326 465.616C248.512 465.616 138.414 473.834 138.414 483.972C138.414 494.109 248.512 502.327 384.326 502.327Z" fill="#6C63FF"/>
<path opacity="0.1" d="M634.924 504.736C644.783 504.736 652.775 503.38 652.775 501.708C652.775 500.036 644.783 498.68 634.924 498.68C625.065 498.68 617.073 500.036 617.073 501.708C617.073 503.38 625.065 504.736 634.924 504.736Z" fill="#6C63FF"/>
<path opacity="0.1" d="M463.976 522.166C473.835 522.166 481.827 520.811 481.827 519.138C481.827 517.466 473.835 516.11 463.976 516.11C454.117 516.11 446.125 517.466 446.125 519.138C446.125 520.811 454.117 522.166 463.976 522.166Z" fill="#6C63FF"/>
<path opacity="0.1" d="M663.156 478.488C673.015 478.488 681.007 477.132 681.007 475.46C681.007 473.787 673.015 472.431 663.156 472.431C653.297 472.431 645.305 473.787 645.305 475.46C645.305 477.132 653.297 478.488 663.156 478.488Z" fill="#6C63FF"/>
<path d="M486.912 50.3271H213.975C210.387 50.3271 207.479 53.2472 207.479 56.8493V470.661C207.479 474.263 210.387 477.183 213.975 477.183H486.912C490.499 477.183 493.408 474.263 493.408 470.661V56.8493C493.408 53.2472 490.499 50.3271 486.912 50.3271Z" fill="#333333"/>
<path opacity="0.1" d="M444.614 90.1722H246.21C235.517 90.1722 226.848 98.8759 226.848 109.612V154.649C226.848 165.385 235.517 174.089 246.21 174.089H444.614C455.307 174.089 463.976 165.385 463.976 154.649V109.612C463.976 98.8759 455.307 90.1722 444.614 90.1722Z" fill="black"/>
<path d="M455.147 91.8096H235.133C231.399 91.8096 228.372 94.8488 228.372 98.598V166.182C228.372 169.931 231.399 172.971 235.133 172.971H455.147C458.881 172.971 461.908 169.931 461.908 166.182V98.598C461.908 94.8488 458.881 91.8096 455.147 91.8096Z" fill="#E6E8EC"/>
<path opacity="0.1" d="M275.111 209.042H242.259C238.309 209.042 235.107 212.257 235.107 216.223V254.464C235.107 258.43 238.309 261.645 242.259 261.645H275.111C279.061 261.645 282.264 258.43 282.264 254.464V216.223C282.264 212.257 279.061 209.042 275.111 209.042Z" fill="white"/>
<path opacity="0.1" d="M276.004 209.114H243.152C239.202 209.114 236 212.329 236 216.295V254.536C236 258.502 239.202 261.717 243.152 261.717H276.004C279.954 261.717 283.157 258.502 283.157 254.536V216.295C283.157 212.329 279.954 209.114 276.004 209.114Z" fill="white"/>
<path opacity="0.1" d="M333.004 209.114H300.152C296.202 209.114 293 212.329 293 216.295V254.536C293 258.502 296.202 261.717 300.152 261.717H333.004C336.954 261.717 340.157 258.502 340.157 254.536V216.295C340.157 212.329 336.954 209.114 333.004 209.114Z" fill="white"/>
<path opacity="0.1" d="M436.056 210.16H427.134C416.576 210.16 408.017 218.754 408.017 229.354V243.57C408.017 254.17 416.576 262.764 427.134 262.764H436.056C446.614 262.764 455.173 254.17 455.173 243.57V229.354C455.173 218.754 446.614 210.16 436.056 210.16Z" fill="black"/>
<path d="M448.021 209.042H415.169C411.219 209.042 408.017 212.257 408.017 216.223V254.464C408.017 258.43 411.219 261.645 415.169 261.645H448.021C451.971 261.645 455.173 258.43 455.173 254.464V216.223C455.173 212.257 451.971 209.042 448.021 209.042Z" fill="#BC3838"/>
<path opacity="0.1" d="M275.111 270.32H242.259C238.309 270.32 235.107 273.535 235.107 277.501V315.742C235.107 319.708 238.309 322.923 242.259 322.923H275.111C279.061 322.923 282.264 319.708 282.264 315.742V277.501C282.264 273.535 279.061 270.32 275.111 270.32Z" fill="white"/>
<path opacity="0.1" d="M332.004 270.32H299.152C295.202 270.32 292 273.535 292 277.501V315.742C292 319.708 295.202 322.923 299.152 322.923H332.004C335.954 322.923 339.157 319.708 339.157 315.742V277.501C339.157 273.535 335.954 270.32 332.004 270.32Z" fill="white"/>
<path opacity="0.1" d="M389.004 270.32H356.152C352.202 270.32 349 273.535 349 277.501V315.742C349 319.708 352.202 322.923 356.152 322.923H389.004C392.954 322.923 396.157 319.708 396.157 315.742V277.501C396.157 273.535 392.954 270.32 389.004 270.32Z" fill="white"/>
<path opacity="0.1" d="M275.111 330.522H242.259C238.309 330.522 235.107 333.737 235.107 337.703V375.944C235.107 379.91 238.309 383.125 242.259 383.125H275.111C279.061 383.125 282.264 379.91 282.264 375.944V337.703C282.264 333.737 279.061 330.522 275.111 330.522Z" fill="white"/>
<path opacity="0.1" d="M332.004 330.522H299.152C295.202 330.522 292 333.737 292 337.703V375.944C292 379.91 295.202 383.125 299.152 383.125H332.004C335.954 383.125 339.157 379.91 339.157 375.944V337.703C339.157 333.737 335.954 330.522 332.004 330.522Z" fill="white"/>
<path opacity="0.1" d="M390.384 330.787H357.532C353.582 330.787 350.38 334.002 350.38 337.968V376.209C350.38 380.175 353.582 383.39 357.532 383.39H390.384C394.334 383.39 397.536 380.175 397.536 376.209V337.968C397.536 334.002 394.334 330.787 390.384 330.787Z" fill="white"/>
<path opacity="0.1" d="M390.384 394.665H357.532C353.582 394.665 350.38 397.88 350.38 401.846V440.087C350.38 444.053 353.582 447.268 357.532 447.268H390.384C394.334 447.268 397.536 444.053 397.536 440.087V401.846C397.536 397.88 394.334 394.665 390.384 394.665Z" fill="white"/>
<path opacity="0.1" d="M436.056 268.028H427.134C416.576 268.028 408.017 276.621 408.017 287.222V301.437C408.017 312.038 416.576 320.631 427.134 320.631H436.056C446.614 320.631 455.173 312.038 455.173 301.437V287.222C455.173 276.621 446.614 268.028 436.056 268.028Z" fill="black"/>
<path d="M447.683 266.91H415.507C411.37 266.91 408.017 270.277 408.017 274.43V311.993C408.017 316.146 411.37 319.513 415.507 319.513H447.683C451.82 319.513 455.173 316.146 455.173 311.993V274.43C455.173 270.277 451.82 266.91 447.683 266.91Z" fill="#BC3838"/>
<path opacity="0.1" d="M333.245 394.665H241.762C238.087 394.665 235.107 397.656 235.107 401.346V440.586C235.107 444.276 238.087 447.268 241.762 447.268H333.245C336.92 447.268 339.9 444.276 339.9 440.586V401.346C339.9 397.656 336.92 394.665 333.245 394.665Z" fill="white"/>
<path opacity="0.1" d="M447.438 330.787H411.252C406.983 330.787 403.522 334.261 403.522 338.547V439.514C403.522 443.8 406.983 447.274 411.252 447.274H447.438C451.706 447.274 455.167 443.8 455.167 439.514V338.547C455.167 334.261 451.706 330.787 447.438 330.787Z" fill="white"/>
<path d="M451.422 158.795H430.78V161.038H451.422V158.795Z" fill="#6C63FF"/>
<path d="M421.201 158.795H400.559V161.038H421.201V158.795Z" fill="#6C63FF"/>
<path d="M390.974 158.795H370.333V161.038H390.974V158.795Z" fill="#6C63FF"/>
<path d="M360.754 158.795H340.112V161.038H360.754V158.795Z" fill="#6C63FF"/>
<path d="M583.24 316.232C585.368 309.044 583.24 301.857 583.24 301.857V295.075C583.24 295.075 585.673 281.818 574.815 273.312L567.616 266.936C567.616 266.936 563.579 263.456 562.406 263.236C562.187 263.189 561.966 263.155 561.743 263.136L561.531 263.01C560.912 261.947 560.384 260.834 559.953 259.682C560.419 259.743 560.893 259.695 561.338 259.543C561.783 259.39 562.187 259.137 562.519 258.804C562.779 258.503 562.983 258.158 563.122 257.785C563.539 256.847 563.612 255.709 563.964 254.711C564.272 253.901 564.721 253.153 565.289 252.501C565.216 252.621 565.137 252.734 565.071 252.86C566.091 251.583 567.424 250.491 568.385 249.147C568.576 248.88 568.751 248.602 568.909 248.315C568.869 248.375 568.816 248.428 568.769 248.488C570.095 246.352 570.5 243.763 570.884 241.267C571.069 240.418 571.083 239.54 570.924 238.685C570.737 238.117 570.498 237.569 570.208 237.048C568.644 233.806 568.67 229.727 566.171 227.138C564.288 225.201 561.438 224.609 558.753 224.276C556.069 223.943 553.245 223.75 550.938 222.339C550.294 221.849 549.582 221.457 548.824 221.175C548.442 221.041 548.027 221.045 547.648 221.186C547.269 221.327 546.951 221.596 546.749 221.947C546.701 222.154 546.606 222.348 546.47 222.512C546.35 222.581 546.216 222.621 546.078 222.629C545.94 222.637 545.802 222.613 545.675 222.559L542.102 221.601L542.142 221.78H542.049L542.182 222.346C542.252 222.334 542.324 222.346 542.385 222.381C542.447 222.417 542.495 222.472 542.52 222.539L541.943 223.431C540.838 223.411 539.745 223.185 538.722 222.765C538.715 222.823 538.715 222.881 538.722 222.938H538.668C538.602 223.95 539.749 224.609 540.1 225.561C540.241 225.977 540.241 226.429 540.1 226.845C539.957 227.231 539.73 227.581 539.437 227.87C538.171 229.128 536.547 228.882 535.089 229.674C534.963 229.728 534.85 229.809 534.759 229.911C534.667 230.013 534.599 230.134 534.559 230.266C534.501 230.364 534.484 230.481 534.512 230.592C534.57 230.745 534.674 230.875 534.811 230.965C535.235 231.309 535.7 231.6 536.196 231.83C536.05 231.963 535.911 232.096 535.778 232.236C533.928 234.124 532.571 236.444 531.831 238.987C531.091 241.53 530.99 244.218 531.537 246.809C532.084 249.401 533.262 251.817 534.966 253.84C536.669 255.864 538.845 257.432 541.3 258.404C541.353 258.684 541.393 258.97 541.433 259.27C541.433 259.303 541.433 259.323 541.433 259.356L541.472 259.742L536.66 261.799C535.934 261.793 535.225 261.58 534.614 261.186C534.004 260.791 533.518 260.23 533.213 259.569C532.093 257.246 528.135 259.569 528.135 259.569C528.135 259.569 516.065 258.664 511.564 260.9C511.564 260.9 504.358 257.865 503.344 257.659C502.33 257.453 500.812 256.647 500.103 256.854C499.393 257.06 498.479 255.523 497.968 255.636C497.458 255.749 497.259 254.624 495.635 254.218C494.011 253.812 493.401 254.325 491.578 252.501C489.755 250.678 474.933 243.49 474.933 243.49L468.278 237.993L461.179 232.322L461.053 232.555C461.007 232.389 460.96 232.216 460.914 232.029C460.207 229.205 459.322 226.428 458.262 223.717C457.805 222.619 457.599 221.235 456.983 221.967C456.605 222.406 455.962 221.441 454.994 220.789C454.789 220.646 454.555 220.552 454.309 220.512C454.063 220.472 453.811 220.488 453.571 220.558C453.332 220.628 453.111 220.751 452.925 220.917C452.739 221.084 452.592 221.29 452.495 221.521C446.967 230.226 444.985 230.838 448.187 234.039C451.044 236.881 452.939 239.364 455.266 240.149L455.544 240.235C455.495 240.249 455.442 240.249 455.392 240.235L468.888 256.434C468.888 256.434 478.626 264.94 485.327 267.668C492.029 270.397 491.512 271.216 491.512 271.216C491.512 271.216 511.809 281.538 514.951 281.338C518.093 281.139 517.49 302.496 516.171 305.963C514.852 309.43 512.724 334.308 512.724 334.308C512.724 334.308 510.689 339.572 512.823 343.212C512.823 343.212 513.294 350.187 512.87 351.864C511.02 354.726 508.382 359.584 507.951 364.583C507.951 364.849 507.898 365.095 507.872 365.355C507.736 365.512 507.575 365.645 507.394 365.747L507.845 365.614C507.653 367.697 507.208 369.749 506.519 371.724C505.446 374.497 504.878 377.441 504.842 380.415V396.495L503.516 406.478C503.516 406.478 501.892 414.031 503.516 415.795C504.201 416.674 504.52 417.786 504.405 418.896C504.337 420.185 504.701 421.46 505.439 422.517C505.721 422.826 505.927 423.197 506.042 423.6C506.157 424.003 506.178 424.427 506.102 424.839C505.565 426.59 506.897 445.218 506.897 445.218C506.897 445.218 506.506 450.349 505.969 450.622C505.432 450.895 506.897 456.558 506.897 456.558C506.897 456.558 501.415 461.151 502.814 463.58L504.212 465.736L503.841 466.102L503.616 466.335C503.193 466.09 502.7 465.996 502.217 466.069C500.494 467.838 498.652 469.486 496.702 471C494.23 472.791 487.501 475.386 487.501 475.386L482.199 475.819H482.099C482.099 475.819 479.56 475.579 480.985 479.526C482.411 483.472 495.151 482.261 495.151 482.261L502.588 481.083C502.588 481.083 515.846 481.15 519.644 480.305C521.228 479.952 521.633 479.1 521.5 478.241L521.46 478.201C521.278 477.383 520.906 476.619 520.373 475.972C520.346 475.929 520.315 475.889 520.28 475.852L520.519 473.123C526.147 469.869 518.928 463.467 518.928 463.467C518.928 463.467 521.401 458.069 522.667 456.319C523.933 454.569 523.933 428.779 523.933 428.779C523.933 428.779 524.596 419.462 522.852 417.306C522.822 416.603 522.983 415.906 523.317 415.289C523.651 414.671 524.145 414.156 524.748 413.798C526.001 412.94 529.786 401.113 532.756 391.297L534.625 402.864C534.625 402.864 534.221 408.401 535.434 410.018C535.662 410.323 535.824 410.672 535.911 411.043C535.998 411.414 536.007 411.8 535.937 412.174C535.65 413.726 535.743 415.325 536.209 416.833C536.352 417.48 536.698 418.063 537.197 418.497C538.277 419.036 538.344 420.959 538.748 421.365C539.152 421.771 541.658 420.793 541.791 422.277C541.866 423.581 541.866 424.887 541.791 426.191L542.606 450.216C542.606 450.216 541.28 452.213 540.982 457.537C540.869 459.806 540.445 461.097 540.007 461.836C539.765 462.232 539.653 462.696 539.689 463.16C539.725 463.624 539.906 464.064 540.206 464.418L540.438 464.691L539.437 465.463C539.035 465.777 538.753 466.221 538.64 466.719C538.526 467.218 538.588 467.74 538.814 468.199C538.491 468.481 538.26 468.853 538.15 469.268C538.04 469.684 538.057 470.122 538.198 470.528C538.239 470.661 538.297 470.789 538.37 470.907C537.61 471.027 536.904 471.378 536.348 471.912C535.349 473.291 534.144 474.508 532.776 475.519C530.79 477.047 528.889 478.682 527.081 480.418C526.229 481.582 525.086 482.501 523.767 483.08C523.444 483.211 523.109 483.312 522.766 483.379C520.115 483.925 520.943 486.707 523.104 487.166C525.265 487.625 532.437 489.828 538.019 488.544C538.019 488.544 539.676 489.209 542.109 487.971C544.542 486.733 549.97 485.216 549.97 485.216C549.97 485.216 553.013 485.216 553.424 484.005C553.531 483.619 553.589 483.221 553.596 482.82L553.682 482.734L553.603 482.66C553.61 481.753 553.542 480.847 553.397 479.952C553.318 479.486 553.232 479.073 553.152 478.741C552.894 477.729 552.41 476.418 552.204 475.865C552.239 475.822 552.27 475.775 552.297 475.726C553.457 473.729 551.528 468.991 551.528 468.991C552.162 467.982 552.931 467.065 553.815 466.269C554.896 465.457 557.739 444.399 557.739 444.399C557.739 444.399 557.6 439.002 559.065 436.573C560.53 434.144 557.037 419.435 557.037 419.435C557.037 419.435 555.545 416.061 556.089 414.843C556.632 413.625 555.545 409.173 555.545 409.173V403.849C555.542 403.215 555.437 402.585 555.234 401.985C554.816 400.734 554.2 398.332 554.869 396.608C555.817 394.179 557.978 379.198 557.978 379.198C557.978 379.198 556.288 372.589 558.767 367.325C558.96 366.904 559.182 366.497 559.43 366.107C561.266 363.212 560.716 358.067 559.807 353.921C559.675 353.255 559.522 352.656 559.37 352.077C559.31 351.824 559.244 351.585 559.178 351.345L559.469 351.225C559.469 351.225 559.469 350.833 559.562 350.161C560.563 349.961 561.513 349.558 562.352 348.975C563.191 348.393 563.902 347.643 564.441 346.773C564.441 346.773 570.632 339.785 576.107 336.85C581.583 333.915 581.994 329.662 581.994 329.662C581.185 328.245 583.445 322.475 583.445 322.475L583.24 316.232ZM565.382 325.549L559.522 332.371V332.331C557.998 330.201 560.941 325.443 560.941 325.443L565.813 314.528C565.773 315.926 565.601 317.19 565.15 317.743C563.824 319.566 567.59 322.608 567.59 322.608C565.581 322.614 565.382 325.549 565.382 325.549Z" fill="url(#paint0_linear)"/>
<path d="M462.213 236.109L459.011 242.345C457.998 242.258 456.998 242.048 456.035 241.72C454.508 241.262 453.095 240.484 451.89 239.438C450.684 238.392 449.714 237.101 449.042 235.65C446.185 229.314 450.911 225.221 453.112 224.01C455.312 222.799 457.361 221.421 459.011 225.394C460.047 228.09 460.913 230.848 461.603 233.653C461.987 235.111 462.213 236.109 462.213 236.109Z" fill="#CC818C"/>
<path d="M563.891 268.547L558.78 276.187C558.78 276.187 534.631 287.754 539.245 274.191C541.273 268.201 541.512 263.828 541.148 260.8C541.148 260.767 541.148 260.747 541.148 260.714C540.67 256.927 539.252 255.283 539.252 255.283C539.252 255.283 562.79 243.184 559.284 251.456C558.568 253.176 558.284 255.045 558.455 256.9C558.744 259.573 559.608 262.15 560.987 264.454C561.816 265.913 562.789 267.284 563.891 268.547Z" fill="#CC818C"/>
<path d="M556.539 419.895C556.539 419.895 560.012 434.536 558.528 436.925C557.043 439.315 557.202 444.706 557.202 444.706C557.202 444.706 554.398 465.63 553.331 466.428C552.455 467.207 551.69 468.102 551.057 469.09C551.057 469.09 552.966 473.829 551.819 475.786C551.643 476.084 551.375 476.317 551.057 476.451C549.267 477.21 542.652 473.842 538.887 471.792C538.584 471.626 538.325 471.388 538.133 471.1C537.94 470.812 537.82 470.481 537.782 470.136C537.745 469.791 537.79 469.442 537.916 469.119C538.041 468.795 538.242 468.507 538.502 468.279C538.276 467.825 538.213 467.306 538.324 466.811C538.435 466.316 538.714 465.875 539.112 465.563L540.106 464.791L539.874 464.518C539.577 464.165 539.398 463.727 539.362 463.266C539.326 462.805 539.436 462.344 539.676 461.949C540.106 461.224 540.524 459.953 540.637 457.683C540.909 452.452 542.241 450.442 542.241 450.442L541.439 426.563C541.515 425.269 541.515 423.971 541.439 422.677C541.306 421.206 538.834 422.177 538.436 421.771C538.038 421.365 537.965 419.462 536.898 418.923C536.406 418.489 536.067 417.908 535.93 417.266C535.459 415.759 535.365 414.159 535.659 412.607C535.727 412.235 535.718 411.852 535.633 411.484C535.547 411.115 535.387 410.768 535.161 410.464C533.962 408.854 534.359 403.363 534.359 403.363L532.517 391.863C529.58 401.619 525.848 413.372 524.609 414.224C524.014 414.582 523.526 415.094 523.197 415.707C522.868 416.319 522.71 417.01 522.739 417.705C524.476 419.855 523.806 429.112 523.806 429.112C523.806 429.112 523.806 454.722 522.554 456.472C521.301 458.222 518.875 463.607 518.875 463.607C518.875 463.607 526.034 470.002 520.399 473.23H520.34C514.593 476.451 502.707 467.467 502.707 467.467L503.947 466.222L504.311 465.856L502.906 463.753C501.527 461.337 506.936 456.778 506.936 456.778C506.936 456.778 505.491 451.141 506.022 450.875C506.552 450.609 506.936 445.511 506.936 445.511C506.936 445.511 505.611 427.003 506.154 425.259C506.227 424.849 506.205 424.427 506.09 424.027C505.975 423.627 505.77 423.258 505.491 422.949C504.762 421.899 504.402 420.634 504.471 419.356C504.586 418.253 504.27 417.147 503.589 416.274C501.985 414.531 503.589 407.023 503.589 407.023L504.915 397.094V381.327C504.933 378.284 505.501 375.269 506.592 372.429C507.402 370.127 507.892 367.724 508.05 365.288C508.488 360.204 511.212 355.265 513.041 352.45C514.009 350.959 514.732 350.068 514.732 350.068L557.474 348.39C557.474 348.39 558.137 350.3 558.852 352.956C558.998 353.535 559.144 354.147 559.283 354.786C560.178 358.912 560.715 364.024 558.905 366.899C558.66 367.288 558.439 367.693 558.243 368.11C555.797 373.341 557.467 379.91 557.467 379.91C557.467 379.91 555.333 394.791 554.398 397.213C553.735 398.924 554.345 401.313 554.763 402.538C554.958 403.137 555.058 403.764 555.061 404.395V409.699C555.061 409.699 556.135 414.125 555.598 415.336C555.061 416.547 556.539 419.895 556.539 419.895Z" fill="#444053"/>
<path opacity="0.1" d="M558.508 367.325C558.26 367.711 558.039 368.113 557.845 368.529L555.439 368.396C555.671 367.152 554.034 355.485 554.034 355.485L558.879 355.212C559.774 359.332 560.318 364.443 558.508 367.325Z" fill="black"/>
<path d="M558.905 366.919C558.66 367.308 558.439 367.713 558.243 368.13L555.836 367.99C556.068 366.752 554.431 355.079 554.431 355.079L559.277 354.806C560.178 358.932 560.715 364.044 558.905 366.919Z" fill="#444053"/>
<path opacity="0.05" d="M558.905 366.919C558.66 367.308 558.439 367.713 558.243 368.13L555.836 367.99C556.068 366.752 554.431 355.079 554.431 355.079L559.277 354.806C560.178 358.932 560.715 364.044 558.905 366.919Z" fill="black"/>
<path opacity="0.1" d="M551.827 475.812C551.65 476.11 551.383 476.343 551.064 476.478C549.275 477.237 542.659 473.869 538.894 471.819C538.424 471.558 538.067 471.131 537.893 470.621C540.041 470.228 541.446 472.618 541.446 472.618C541.804 472.392 542.203 472.241 542.621 472.173C543.038 472.105 543.464 472.121 543.875 472.221C544.286 472.321 544.672 472.502 545.012 472.754C545.352 473.006 545.638 473.324 545.854 473.689C547.69 476.405 551.628 475.26 551.628 475.26L551.827 475.812Z" fill="black"/>
<path d="M552.933 484.032C552.536 485.243 549.526 485.243 549.526 485.243C549.526 485.243 544.15 486.787 541.744 487.991C539.338 489.196 537.707 488.564 537.707 488.564C532.199 489.835 525.113 487.625 522.978 487.186C520.844 486.747 520.009 483.972 522.647 483.433C522.985 483.363 523.316 483.26 523.635 483.126C524.956 482.552 526.101 481.633 526.949 480.464C528.735 478.741 530.614 477.117 532.577 475.599C533.928 474.592 535.117 473.382 536.103 472.012C539.245 469.23 541.479 473.05 541.479 473.05C541.837 472.825 542.237 472.674 542.655 472.607C543.072 472.539 543.499 472.556 543.909 472.656C544.32 472.757 544.707 472.939 545.046 473.192C545.386 473.445 545.672 473.763 545.887 474.129C547.723 476.844 551.661 475.693 551.661 475.693C551.661 475.693 552.37 477.509 552.701 478.814C552.781 479.147 552.867 479.559 552.947 480.025C553.126 481.376 553.238 483.126 552.933 484.032Z" fill="#FF748F"/>
<path d="M543.746 475.553C543.947 475.553 544.11 475.389 544.11 475.187C544.11 474.984 543.947 474.821 543.746 474.821C543.545 474.821 543.381 474.984 543.381 475.187C543.381 475.389 543.545 475.553 543.746 475.553Z" fill="#575988"/>
<path d="M540.611 478.501C540.812 478.501 540.975 478.337 540.975 478.135C540.975 477.933 540.812 477.769 540.611 477.769C540.409 477.769 540.246 477.933 540.246 478.135C540.246 478.337 540.409 478.501 540.611 478.501Z" fill="#575988"/>
<path d="M537.422 481.15C537.624 481.15 537.787 480.986 537.787 480.784C537.787 480.582 537.624 480.418 537.422 480.418C537.221 480.418 537.058 480.582 537.058 480.784C537.058 480.986 537.221 481.15 537.422 481.15Z" fill="#575988"/>
<path d="M539.073 479.965C539.274 479.965 539.438 479.801 539.438 479.599C539.438 479.397 539.274 479.233 539.073 479.233C538.872 479.233 538.708 479.397 538.708 479.599C538.708 479.801 538.872 479.965 539.073 479.965Z" fill="#575988"/>
<path d="M542.248 476.937C542.449 476.937 542.613 476.773 542.613 476.571C542.613 476.369 542.449 476.205 542.248 476.205C542.047 476.205 541.883 476.369 541.883 476.571C541.883 476.773 542.047 476.937 542.248 476.937Z" fill="#575988"/>
<path d="M552.933 484.031C552.536 485.243 549.526 485.243 549.526 485.243C549.526 485.243 544.15 486.787 541.744 487.991C539.338 489.196 537.707 488.564 537.707 488.564C532.199 489.835 525.113 487.625 522.978 487.186C520.844 486.747 520.009 483.972 522.647 483.432C522.985 483.363 523.316 483.26 523.635 483.126C525.965 483.932 528.398 484.396 530.86 484.504C536.302 484.737 540.611 484.504 540.611 484.504L546.119 482.727C547.162 482.092 548.32 481.671 549.526 481.489C550.746 481.24 551.9 480.736 552.913 480.012C553.126 481.376 553.238 483.126 552.933 484.031Z" fill="#DCE6F2"/>
<path opacity="0.5" d="M539.225 487.499C538.918 487.501 538.612 487.472 538.311 487.412L538.39 487.02C539.517 487.193 540.669 487.031 541.704 486.554C542.195 486.361 542.686 486.128 543.163 485.888C543.64 485.649 544.31 485.349 544.906 485.13L545.45 484.943C545.748 484.837 546.053 484.737 546.345 484.611C546.51 484.544 546.676 484.464 546.835 484.384C547.226 484.179 547.64 484.02 548.068 483.912C548.287 483.871 548.509 483.842 548.731 483.825C548.935 483.812 549.139 483.787 549.341 483.752C549.742 483.65 550.131 483.505 550.501 483.319C550.896 483.115 551.315 482.959 551.747 482.854L552.039 482.807C552.353 482.799 552.656 482.687 552.9 482.488L553.199 482.76C552.895 483.029 552.509 483.186 552.105 483.206L551.827 483.253C551.425 483.352 551.035 483.497 550.666 483.685C550.269 483.884 549.851 484.038 549.42 484.145C549.202 484.188 548.98 484.215 548.757 484.225C548.548 484.24 548.34 484.267 548.134 484.304C547.736 484.408 547.351 484.558 546.988 484.75L546.484 484.983C546.179 485.11 545.861 485.216 545.556 485.323L545.025 485.509C544.442 485.722 543.872 485.995 543.315 486.254C542.758 486.514 542.334 486.72 541.83 486.92C541.005 487.274 540.122 487.47 539.225 487.499Z" fill="#575988"/>
<path opacity="0.1" d="M540.511 420.866C540.511 420.866 543.282 416.873 548.028 416.873C552.774 416.873 554.803 416.334 554.803 416.334C554.803 416.334 551.767 418.144 549.665 418.377C547.564 418.61 540.511 420.866 540.511 420.866Z" fill="black"/>
<path opacity="0.1" d="M542.115 421.805C542.115 421.805 544.621 420.061 546.053 419.994C547.485 419.928 548.704 419.795 548.704 419.795C548.033 420.268 547.29 420.63 546.504 420.866C545.33 421.199 542.115 421.805 542.115 421.805Z" fill="black"/>
<path opacity="0.1" d="M542.679 423.009C542.679 423.009 546.45 423.309 546.484 424.34L542.679 423.009Z" fill="black"/>
<path opacity="0.1" d="M507.5 366.439C507.699 366.473 511.073 362.919 511.305 361.514C511.489 360.625 512.016 359.846 512.77 359.345C512.77 359.345 514.945 360.217 513.009 362.892C511.073 365.567 507.5 366.439 507.5 366.439Z" fill="black"/>
<path opacity="0.1" d="M559.251 251.443C558.482 253.267 557.806 253.44 557.925 255.177C557.03 256.128 556.001 256.942 554.869 257.593C552.483 259.017 549.884 261.805 546.915 261.805C544.925 261.807 542.953 261.432 541.101 260.701C540.624 256.914 539.206 255.27 539.206 255.27C539.206 255.27 562.751 243.171 559.251 251.443Z" fill="black"/>
<path d="M562.857 245.007C562.857 248.166 561.923 251.255 560.175 253.881C558.427 256.508 555.943 258.555 553.036 259.764C550.129 260.973 546.93 261.289 543.844 260.673C540.758 260.057 537.923 258.536 535.698 256.302C533.473 254.068 531.958 251.222 531.344 248.123C530.73 245.025 531.045 241.813 532.25 238.895C533.454 235.976 535.493 233.482 538.109 231.727C540.725 229.971 543.801 229.035 546.948 229.035C551.167 229.035 555.213 230.717 558.197 233.713C561.18 236.708 562.857 240.771 562.857 245.007Z" fill="#CC818C"/>
<path opacity="0.1" d="M563.891 268.547L558.78 276.187C558.78 276.187 534.631 287.754 539.245 274.191C541.273 268.201 541.512 263.828 541.148 260.8H541.187C541.473 261.804 541.635 262.839 541.671 263.882C541.744 265.971 541.797 268.614 546.974 269.485C555.591 270.936 560.192 265.532 561.001 264.474C561.826 265.925 562.795 267.289 563.891 268.547Z" fill="black"/>
<path opacity="0.1" d="M462.213 236.109L459.012 242.345C457.998 242.258 456.999 242.048 456.035 241.72L455.757 241.387C457.083 241.893 461.464 233.54 461.464 233.54L461.603 233.653C461.988 235.111 462.213 236.109 462.213 236.109Z" fill="black"/>
<path opacity="0.1" d="M558.853 352.976C548.539 357.475 512.863 353.641 512.863 353.641C512.969 353.26 513.029 352.866 513.042 352.47C514.01 350.979 514.732 350.088 514.732 350.088L557.474 348.41C557.474 348.41 558.17 350.32 558.853 352.976Z" fill="black"/>
<path d="M541.161 261.173L536.401 263.216C535.683 263.21 534.982 262.998 534.379 262.606C533.777 262.213 533.299 261.656 533.001 261C531.894 258.691 527.989 261 527.989 261C527.989 261 516.058 260.095 511.656 262.331C511.656 262.331 504.544 259.309 503.543 259.11C502.542 258.91 501.037 258.105 500.334 258.305C499.632 258.504 498.737 256.973 498.233 257.1C497.729 257.226 497.53 256.095 495.926 255.689C494.322 255.283 493.726 255.789 491.949 253.979C490.173 252.168 475.516 245.027 475.516 245.027L468.888 239.597L461.875 233.966C461.875 233.966 457.466 242.312 456.161 241.806L469.484 257.905C469.484 257.905 479.103 266.351 485.718 269.066C492.334 271.781 491.83 272.587 491.83 272.587C491.83 272.587 511.868 282.849 514.971 282.65C518.073 282.45 517.489 303.647 516.164 307.068C514.838 310.489 512.763 335.233 512.763 335.233C512.763 335.233 510.775 340.464 512.863 344.084C512.863 344.084 513.36 351.532 512.863 352.836C512.863 352.836 548.757 356.689 558.945 352.131C558.945 352.131 560.45 335.433 558.945 333.323C557.441 331.213 560.351 326.508 560.351 326.508L566.761 312.126L582.391 296.333C582.391 296.333 584.791 283.155 574.072 274.71L566.96 268.367C566.96 268.367 562.982 264.913 561.816 264.694C560.649 264.474 561.08 264.694 561.08 264.694C561.08 264.694 556.44 271.489 546.921 269.878C541.764 269.006 541.711 266.364 541.618 264.281C541.591 263.23 541.437 262.187 541.161 261.173Z" fill="#24768C"/>
<path opacity="0.1" d="M560.748 315.32C560.748 315.32 538.701 316.225 534.3 323.18C534.3 323.18 540.014 320.458 545.118 321.263C550.222 322.069 560.748 315.32 560.748 315.32Z" fill="black"/>
<path opacity="0.1" d="M536.401 339.559C536.401 339.559 546.822 340.264 549.029 338.048C551.236 335.832 551.243 334.527 551.243 334.527L536.401 339.559Z" fill="black"/>
<path opacity="0.1" d="M562.856 293.99C562.856 293.99 554.033 304.452 564.759 308.978L562.856 293.99Z" fill="black"/>
<path opacity="0.1" d="M510.655 273.778C510.655 273.778 513.864 280.347 515.468 280.779L510.655 273.778Z" fill="black"/>
<path opacity="0.1" d="M499.838 270.956C499.838 270.956 507.852 278.204 509.357 278.903C509.357 278.903 501.038 270.956 499.838 270.956Z" fill="black"/>
<path opacity="0.1" d="M531.794 264.021C531.794 264.021 524.078 275.588 529.09 282.656C529.09 282.63 526.286 274.277 531.794 264.021Z" fill="black"/>
<path d="M551.243 351.631L548.883 353.861L548.552 354.167L545.821 356.763C545.629 356.909 545.436 357.055 545.238 357.188C534.121 365.175 531.894 353.036 531.894 353.036C531.894 353.036 526.989 356.257 526.286 353.641C525.584 351.026 537.707 347.305 539.544 347.505C539.704 347.522 539.867 347.522 540.027 347.505C540.903 347.359 541.747 347.059 542.52 346.62L543.057 346.334C543.674 345.985 544.274 345.605 544.853 345.196L551.243 351.631Z" fill="#CC818C"/>
<path opacity="0.1" d="M563.227 245.007C563.233 247.778 562.522 250.502 561.162 252.913C559.802 255.323 557.841 257.337 555.472 258.757C555.25 258.383 555.055 257.994 554.889 257.592C554.318 256.261 553.967 254.824 553.39 253.486C552.76 252.026 551.86 250.698 550.739 249.573C550.549 249.35 550.305 249.18 550.03 249.08C549.772 249.045 549.51 249.062 549.259 249.132C549.008 249.202 548.774 249.322 548.571 249.486C547.897 249.945 547.144 250.277 546.351 250.465C545.954 250.556 545.54 250.543 545.15 250.426C544.76 250.31 544.406 250.094 544.124 249.799C543.5 249.054 543.587 247.962 543.766 247.011C544.157 244.927 544.806 242.878 544.813 240.761C544.82 238.645 544.011 236.369 542.161 235.317C540.544 234.392 538.536 234.652 536.739 234.133C536.461 234.059 536.188 233.966 535.924 233.853C538.132 231.577 540.967 230.014 544.065 229.365C547.163 228.715 550.383 229.007 553.314 230.205C556.246 231.402 558.755 233.45 560.521 236.087C562.287 238.724 563.229 241.83 563.227 245.007Z" fill="black"/>
<path d="M534.837 231.297C534.552 231.451 534.234 231.73 534.32 232.05C534.375 232.202 534.477 232.332 534.612 232.422C535.354 233.024 536.211 233.465 537.131 233.72C538.927 234.212 540.942 233.98 542.56 234.905C544.389 235.949 545.211 238.232 545.211 240.349C545.211 242.465 544.548 244.515 544.17 246.591C543.991 247.55 543.899 248.641 544.522 249.386C544.805 249.679 545.159 249.894 545.549 250.011C545.939 250.127 546.352 250.141 546.749 250.052C547.542 249.868 548.295 249.538 548.969 249.08C549.173 248.915 549.408 248.794 549.66 248.723C549.912 248.652 550.175 248.633 550.434 248.668C550.707 248.772 550.95 248.941 551.144 249.16C552.266 250.287 553.165 251.617 553.795 253.08C554.379 254.411 554.723 255.842 555.293 257.186C555.79 258.557 556.722 259.727 557.945 260.514C559.218 261.22 560.981 261.18 561.962 260.088C562.943 258.997 562.863 257.499 563.327 256.188C564.123 253.905 566.343 252.475 567.735 250.505C569.293 248.288 569.724 245.506 570.148 242.824C570.337 241.98 570.35 241.105 570.188 240.255C570.006 239.693 569.771 239.149 569.485 238.632C567.934 235.41 567.967 231.357 565.508 228.788C563.652 226.858 560.835 226.273 558.183 225.94C555.532 225.607 552.748 225.421 550.474 224.017C549.837 223.533 549.134 223.143 548.386 222.859C548.008 222.725 547.595 222.729 547.219 222.87C546.844 223.011 546.529 223.28 546.331 223.631C546.285 223.835 546.192 224.027 546.059 224.19C545.941 224.258 545.808 224.299 545.671 224.307C545.534 224.315 545.397 224.291 545.271 224.236L541.744 223.285L542.149 225.068C540.867 225.122 539.589 224.895 538.403 224.403C538.337 225.414 539.471 226.066 539.822 227.011C539.949 227.441 539.954 227.898 539.837 228.33C539.719 228.763 539.485 229.154 539.159 229.461C537.88 230.752 536.282 230.505 534.837 231.297Z" fill="#585268"/>
<path opacity="0.1" d="M520.546 471.633L520.4 473.237H520.34C514.593 476.458 502.708 467.473 502.708 467.473L503.948 466.229C504.151 466.455 504.304 466.722 504.398 467.012C504.492 467.303 504.523 467.609 504.491 467.913L506.917 468.046L509.821 471.194C509.821 471.194 517.676 472.105 519.803 471.6L520.546 471.633Z" fill="black"/>
<path d="M519.538 480.378C515.8 481.216 502.708 481.156 502.708 481.156L495.363 482.321C495.363 482.321 482.769 483.532 481.37 479.606C479.971 475.679 482.47 475.925 482.47 475.925H482.57L487.813 475.499C487.813 475.499 494.442 472.917 496.901 471.14C498.826 469.636 500.644 467.999 502.343 466.242C502.343 466.242 504.531 465.816 504.491 468.358L506.917 468.491L509.82 471.646C509.82 471.646 517.675 472.558 519.803 472.045H520.546L520.208 475.939L520.3 476.052C520.804 476.664 522.879 479.632 519.538 480.378Z" fill="#FF748F"/>
<path d="M505.982 470.987C506.184 470.987 506.347 470.823 506.347 470.621C506.347 470.419 506.184 470.255 505.982 470.255C505.781 470.255 505.618 470.419 505.618 470.621C505.618 470.823 505.781 470.987 505.982 470.987Z" fill="#575988"/>
<path d="M496.563 475.087C496.764 475.087 496.927 474.923 496.927 474.721C496.927 474.519 496.764 474.355 496.563 474.355C496.361 474.355 496.198 474.519 496.198 474.721C496.198 474.923 496.361 475.087 496.563 475.087Z" fill="#575988"/>
<path d="M491.711 476.564C491.912 476.564 492.075 476.401 492.075 476.198C492.075 475.996 491.912 475.832 491.711 475.832C491.509 475.832 491.346 475.996 491.346 476.198C491.346 476.401 491.509 476.564 491.711 476.564Z" fill="#575988"/>
<path d="M499.036 474.302C499.237 474.302 499.4 474.138 499.4 473.936C499.4 473.733 499.237 473.57 499.036 473.57C498.834 473.57 498.671 473.733 498.671 473.936C498.671 474.138 498.834 474.302 499.036 474.302Z" fill="#575988"/>
<path d="M494.13 475.826C494.332 475.826 494.495 475.662 494.495 475.46C494.495 475.257 494.332 475.094 494.13 475.094C493.929 475.094 493.766 475.257 493.766 475.46C493.766 475.662 493.929 475.826 494.13 475.826Z" fill="#575988"/>
<path d="M501.535 473.137C501.736 473.137 501.899 472.973 501.899 472.771C501.899 472.569 501.736 472.405 501.535 472.405C501.333 472.405 501.17 472.569 501.17 472.771C501.17 472.973 501.333 473.137 501.535 473.137Z" fill="#575988"/>
<path d="M504.007 472.059C504.208 472.059 504.371 471.895 504.371 471.693C504.371 471.491 504.208 471.327 504.007 471.327C503.805 471.327 503.642 471.491 503.642 471.693C503.642 471.895 503.805 472.059 504.007 472.059Z" fill="#575988"/>
<path d="M519.538 480.378C515.8 481.216 502.708 481.156 502.708 481.156L495.363 482.321C495.363 482.321 482.769 483.532 481.37 479.606C479.971 475.679 482.47 475.925 482.47 475.925H482.57C483.372 476.97 484.983 478.155 488.145 478.215L497.199 478.581L506.579 477.915C506.579 477.915 515.369 477.656 516.8 477.35C518.003 477.025 519.174 476.593 520.3 476.059C520.804 476.664 522.879 479.632 519.538 480.378Z" fill="#DCE6F2"/>
<path opacity="0.5" d="M496.073 481.436C495.572 481.443 495.072 481.38 494.588 481.25L494.694 480.863C495.929 481.13 497.212 481.073 498.419 480.697C498.863 480.577 499.301 480.451 499.745 480.318C500.547 480.062 501.364 479.856 502.191 479.699C503.527 479.524 504.877 479.484 506.221 479.579H506.506C510.522 479.791 514.549 479.61 518.531 479.04C519.475 478.974 520.375 478.611 521.103 478.002L521.388 478.288C520.602 478.958 519.625 479.361 518.597 479.439C514.589 480.013 510.536 480.193 506.493 479.978H506.201C504.875 479.885 503.543 479.925 502.224 480.098C501.415 480.25 500.615 480.452 499.831 480.704C499.387 480.837 498.943 480.97 498.505 481.083C497.712 481.3 496.895 481.418 496.073 481.436Z" fill="#575988"/>
<path opacity="0.1" d="M551.243 351.631L548.883 353.861L543.023 346.327C543.641 345.978 544.24 345.598 544.82 345.189L551.243 351.631Z" fill="black"/>
<path d="M577.811 289.904L582.451 296.339V303.081C582.451 303.081 584.552 310.222 582.451 317.363L582.676 323.599C582.676 323.599 580.442 329.33 581.245 330.741C581.245 330.741 580.847 334.967 575.438 337.882C570.029 340.797 563.891 347.705 563.891 347.705C563.891 347.705 561.584 352.131 555.373 351.126L549.46 353.641L542.652 344.89L551.866 339.858C551.866 339.858 555.074 335.539 556.977 335.739L564.792 326.581C564.792 326.581 564.991 323.666 566.993 323.666C566.993 323.666 563.287 320.651 564.587 318.841C565.886 317.031 564.792 308.978 564.792 308.978L577.811 289.904Z" fill="#24768C"/>
<path opacity="0.1" d="M569.193 319.24C569.193 319.24 579.713 319.041 581.012 321.756C582.312 324.471 572.369 317.73 569.193 319.24Z" fill="black"/>
<path opacity="0.1" d="M548.599 353.641C548.6 353.818 548.584 353.994 548.552 354.167C548.431 354.977 548.035 355.72 547.431 356.271C546.827 356.821 546.053 357.145 545.238 357.189H545.052C544.114 357.189 543.213 356.814 542.549 356.148C541.886 355.481 541.513 354.577 541.513 353.635C541.513 353.242 541.581 352.853 541.711 352.483C540.041 351.152 539.948 348.703 539.995 347.492C540.871 347.346 541.714 347.046 542.487 346.607C542.923 347.864 543.508 349.064 544.23 350.181C544.5 350.117 544.776 350.083 545.052 350.081C545.518 350.081 545.979 350.173 546.41 350.352C546.84 350.531 547.231 350.793 547.56 351.124C547.889 351.454 548.151 351.847 548.329 352.279C548.507 352.711 548.599 353.174 548.599 353.641Z" fill="black"/>
<path d="M542.805 345.808C542.805 345.808 540.432 346.347 540.432 346.78C540.432 347.212 539.895 351.139 542.5 352.77C545.105 354.4 544.84 350.52 544.84 350.52C544.84 350.52 542.6 347.073 542.805 345.808Z" fill="#575988"/>
<path d="M545.449 357.195C547.404 357.195 548.989 355.604 548.989 353.641C548.989 351.679 547.404 350.087 545.449 350.087C543.494 350.087 541.91 351.679 541.91 353.641C541.91 355.604 543.494 357.195 545.449 357.195Z" fill="#E4AAB4"/>
<path d="M545.449 356.69C547.126 356.69 548.485 355.325 548.485 353.641C548.485 351.958 547.126 350.593 545.449 350.593C543.773 350.593 542.414 351.958 542.414 353.641C542.414 355.325 543.773 356.69 545.449 356.69Z" fill="#DCE6F2"/>
<path opacity="0.1" d="M531.662 355.019C531.662 355.019 539.146 361.248 548.757 357.295V360.317C548.757 360.317 542.347 364.742 536.541 362.06C530.734 359.378 531.662 355.019 531.662 355.019Z" fill="black"/>
<path opacity="0.1" d="M531.662 354.214C531.662 354.214 539.146 360.45 548.757 356.49V359.511C548.757 359.511 542.347 363.937 536.541 361.255C530.734 358.573 531.662 354.214 531.662 354.214Z" fill="black"/>
<path d="M531.662 354.214C531.662 354.214 539.146 360.45 548.757 356.49V359.511C548.757 359.511 542.347 363.937 536.541 361.255C530.734 358.573 531.662 354.214 531.662 354.214Z" fill="#444053"/>
<path opacity="0.05" d="M531.861 354.214C531.861 354.214 539.345 360.45 548.963 356.49V359.511C548.963 359.511 542.553 363.937 536.74 361.255C530.926 358.573 531.861 354.214 531.861 354.214Z" fill="black"/>
<path opacity="0.1" d="M508.15 466.229C508.15 466.229 518.173 468.079 519.638 468.478C521.102 468.878 519.24 469.583 519.24 469.583C519.24 469.583 510.092 467.939 508.15 466.229Z" fill="black"/>
<path opacity="0.1" d="M507.918 460.898C508.084 460.898 514.732 459.021 516.164 455.807L507.918 460.898Z" fill="black"/>
<path opacity="0.1" d="M517.616 422.41C517.616 422.41 520.307 425.964 522.044 425.864C523.78 425.765 519.193 422.277 517.616 422.41Z" fill="black"/>
<path opacity="0.1" d="M519.107 428.333C519.107 428.333 520.24 430.843 521.911 430.037L519.107 428.333Z" fill="black"/>
<path opacity="0.05" d="M525.444 373.095L532.55 391.909C532.55 391.909 533.551 379.803 531.437 376.183C530.836 375.147 529.952 374.306 528.89 373.759C527.828 373.212 526.633 372.981 525.444 373.095Z" fill="black"/>
<g opacity="0.1">
<path opacity="0.1" d="M542.904 224.016L542.844 223.744L541.704 223.438L541.83 223.997C542.187 224.023 542.546 224.03 542.904 224.016Z" fill="black"/>
<path opacity="0.1" d="M539.769 228.555L539.888 228.449C540.214 228.143 540.449 227.752 540.567 227.319C540.684 226.886 540.678 226.43 540.551 226C540.413 225.666 540.22 225.358 539.981 225.088C539.419 224.977 538.869 224.814 538.337 224.602C538.271 225.607 539.397 226.259 539.749 227.204C539.912 227.639 539.919 228.116 539.769 228.555Z" fill="black"/>
<path opacity="0.1" d="M558.72 259.482C557.484 258.701 556.541 257.531 556.035 256.155C555.472 254.824 555.121 253.386 554.544 252.055C553.914 250.592 553.014 249.262 551.892 248.135C551.701 247.914 551.457 247.744 551.183 247.643C550.925 247.609 550.663 247.627 550.413 247.697C550.162 247.766 549.928 247.886 549.725 248.049C549.05 248.508 548.297 248.839 547.504 249.027C547.107 249.117 546.694 249.103 546.304 248.987C545.914 248.87 545.56 248.655 545.277 248.361C544.654 247.616 544.74 246.518 544.919 245.566C545.31 243.49 545.96 241.433 545.966 239.324C545.973 237.214 545.164 234.925 543.315 233.88C541.697 232.955 539.689 233.214 537.893 232.695C536.971 232.441 536.112 231.999 535.367 231.397C535.32 231.359 535.275 231.316 535.235 231.271C535.084 231.329 534.938 231.398 534.797 231.477C534.505 231.63 534.194 231.91 534.273 232.229C534.333 232.381 534.437 232.51 534.572 232.602C535.313 233.205 536.171 233.646 537.091 233.9C538.887 234.392 540.895 234.159 542.513 235.084C544.342 236.129 545.164 238.412 545.164 240.528C545.164 242.645 544.501 244.694 544.117 246.771C543.938 247.729 543.852 248.821 544.475 249.566C544.758 249.859 545.112 250.075 545.502 250.191C545.892 250.308 546.305 250.322 546.702 250.232C547.495 250.047 548.248 249.718 548.923 249.26C549.125 249.095 549.359 248.974 549.61 248.903C549.86 248.832 550.123 248.813 550.381 248.847C550.655 248.95 550.898 249.119 551.09 249.34C552.21 250.469 553.109 251.799 553.742 253.26C554.325 254.591 554.67 256.022 555.24 257.366C555.737 258.737 556.668 259.906 557.891 260.694C559.157 261.399 560.927 261.359 561.869 260.268C562.129 259.971 562.332 259.628 562.465 259.256C561.931 259.656 561.292 259.891 560.626 259.931C559.961 259.971 559.298 259.815 558.72 259.482Z" fill="black"/>
<path opacity="0.1" d="M564.447 254.365C565.448 253.093 566.767 252.009 567.709 250.678C567.894 250.411 568.066 250.132 568.226 249.852C567.013 251.403 565.349 252.634 564.447 254.365Z" fill="black"/>
</g>
</g>
<defs>
<linearGradient id="paint0_linear" x1="515.422" y1="488.95" x2="515.422" y2="220.489" gradientUnits="userSpaceOnUse">
<stop stop-color="#808080" stop-opacity="0.25"/>
<stop offset="0.54" stop-color="#808080" stop-opacity="0.12"/>
<stop offset="1" stop-color="#808080" stop-opacity="0.1"/>
</linearGradient>
<clipPath id="clip0">
<rect width="681" height="521.754" fill="white" transform="translate(0 0.412598)"/>
</clipPath>
</defs>
</svg>
