<svg width="425" height="313" viewBox="0 0 425 313" fill="none" xmlns="http://www.w3.org/2000/svg">
<path d="M263.048 251.649H13.3851C10.6359 251.646 8.00018 250.552 6.05621 248.606C4.11224 246.66 3.01874 244.022 3.01562 241.27V61.9868C3.01874 59.2351 4.11224 56.5969 6.05621 54.6512C8.00018 52.7054 10.6359 51.6109 13.3851 51.6078H263.048C265.797 51.6109 268.433 52.7054 270.377 54.6512C272.321 56.5969 273.414 59.2351 273.417 61.9868V241.27C273.414 244.022 272.321 246.66 270.377 248.606C268.433 250.552 265.797 251.646 263.048 251.649ZM13.3851 57.0704C12.0828 57.0719 10.8344 57.5904 9.91354 58.5121C8.99272 59.4337 8.47474 60.6834 8.47323 61.9868V241.27C8.4747 242.574 8.99266 243.824 9.91349 244.745C10.8343 245.667 12.0828 246.185 13.3851 246.187H263.048C264.35 246.185 265.599 245.667 266.52 244.745C267.44 243.824 267.958 242.574 267.96 241.27V61.9868C267.958 60.6834 267.44 59.4337 266.519 58.5121C265.599 57.5904 264.35 57.0719 263.048 57.0704H13.3851Z" fill="#E6E6E6"/>
<path d="M132.91 313C144.004 313 152.997 303.998 152.997 292.894C152.997 281.79 144.004 272.788 132.91 272.788C121.816 272.788 112.822 281.79 112.822 292.894C112.822 303.998 121.816 313 132.91 313Z" fill="#E6E6E6"/>
<path d="M132.91 308.309C141.415 308.309 148.31 301.407 148.31 292.894C148.31 284.381 141.415 277.48 132.91 277.48C124.405 277.48 117.51 284.381 117.51 292.894C117.51 301.407 124.405 308.309 132.91 308.309Z" fill="white"/>
<path d="M140.625 301.313C140.533 301.313 140.442 301.295 140.357 301.26C140.272 301.224 140.194 301.173 140.129 301.107L124.698 285.661C124.572 285.528 124.503 285.352 124.505 285.169C124.507 284.986 124.581 284.811 124.71 284.681C124.84 284.552 125.014 284.478 125.197 284.476C125.38 284.473 125.557 284.542 125.689 284.668L141.121 300.115C141.219 300.213 141.286 300.338 141.313 300.474C141.34 300.61 141.326 300.751 141.273 300.88C141.22 301.008 141.13 301.117 141.015 301.195C140.9 301.272 140.764 301.313 140.625 301.313H140.625Z" fill="#BC3838"/>
<path d="M141.62 294.38C141.766 294.152 141.842 293.887 141.842 293.617C141.841 293.346 141.763 293.082 141.616 292.855C140.491 291.094 139.008 289.591 137.264 288.443C135.496 287.266 133.427 286.625 131.304 286.597C130.233 286.599 129.17 286.773 128.155 287.114C128.127 287.124 128.101 287.14 128.081 287.163C128.061 287.185 128.047 287.212 128.04 287.241C128.033 287.27 128.034 287.3 128.042 287.329C128.05 287.358 128.066 287.384 128.087 287.405L130.158 289.478C130.18 289.5 130.207 289.515 130.236 289.523C130.266 289.531 130.297 289.532 130.326 289.524C131.411 289.26 132.556 289.438 133.509 290.018C134.463 290.599 135.147 291.535 135.411 292.62L135.416 292.64C135.774 294.319 136.591 295.864 137.776 297.105L138.436 297.766C138.467 297.797 138.509 297.815 138.553 297.817C138.596 297.819 138.64 297.804 138.673 297.776C139.82 296.798 140.813 295.653 141.62 294.38Z" fill="#BC3838"/>
<path d="M134.435 296.148C133.882 296.148 133.335 296.039 132.824 295.828C132.314 295.616 131.85 295.306 131.459 294.914C131.068 294.523 130.758 294.059 130.546 293.548C130.335 293.037 130.226 292.489 130.226 291.936C130.226 291.932 130.226 291.928 130.226 291.925C130.235 291.557 130.171 291.19 130.038 290.847C129.905 290.504 129.705 290.191 129.45 289.925L127.368 287.841C127.337 287.81 127.295 287.791 127.251 287.79C127.207 287.788 127.163 287.803 127.13 287.832C126.004 288.809 125.008 289.925 124.164 291.154C124.006 291.381 123.918 291.651 123.913 291.929C123.908 292.207 123.986 292.48 124.136 292.713C125.243 294.475 126.712 295.98 128.445 297.13C130.215 298.311 132.293 298.946 134.421 298.956C135.502 298.954 136.577 298.783 137.605 298.45C137.634 298.44 137.66 298.424 137.68 298.402C137.701 298.38 137.715 298.353 137.723 298.324C137.73 298.295 137.729 298.264 137.721 298.235C137.713 298.206 137.697 298.18 137.676 298.158L135.595 296.076C135.573 296.054 135.547 296.039 135.517 296.031C135.488 296.023 135.457 296.022 135.427 296.03C135.102 296.109 134.769 296.148 134.435 296.148V296.148Z" fill="#BC3838"/>
<path d="M56.6967 313C67.7906 313 76.784 303.998 76.784 292.894C76.784 281.79 67.7906 272.788 56.6967 272.788C45.6028 272.788 36.6094 281.79 36.6094 292.894C36.6094 303.998 45.6028 313 56.6967 313Z" fill="#E6E6E6"/>
<path d="M56.6962 308.309C65.2015 308.309 72.0965 301.407 72.0965 292.894C72.0965 284.381 65.2015 277.48 56.6962 277.48C48.1908 277.48 41.2959 284.381 41.2959 292.894C41.2959 301.407 48.1908 308.309 56.6962 308.309Z" fill="white"/>
<path d="M62.6125 302.723C61.7567 302.723 60.5546 302.413 58.7545 301.407C56.5172 300.21 54.4742 298.68 52.6953 296.87C50.854 295.115 49.3164 293.066 48.145 290.807C46.5299 287.867 46.8052 286.326 47.113 285.667C47.4683 284.947 48.027 284.347 48.7198 283.942C49.1169 283.682 49.5373 283.458 49.9754 283.275C50.0192 283.256 50.06 283.238 50.0964 283.222C50.2414 283.14 50.4022 283.089 50.5681 283.074C50.734 283.059 50.9013 283.08 51.0587 283.134C51.4086 283.303 51.7199 283.542 51.9732 283.836C52.885 284.861 53.6542 286.003 54.26 287.234C54.5089 287.66 54.662 288.135 54.7085 288.626C54.6721 289.111 54.4755 289.572 54.1495 289.934C54.0921 290.012 54.0351 290.087 53.9798 290.16C53.6462 290.599 53.573 290.726 53.6212 290.952C53.719 291.407 55.2005 291.803 56.3987 292.999C57.5968 294.196 58.1587 295.839 58.6151 295.936C58.851 295.987 58.9803 295.91 59.4328 295.564C59.4976 295.515 59.5643 295.464 59.634 295.412C59.9966 295.07 60.4641 294.861 60.9606 294.818H60.9632C61.4609 294.869 61.9395 295.037 62.36 295.309C63.5754 295.925 64.7111 296.689 65.7419 297.581C66.0367 297.833 66.2763 298.144 66.4455 298.494C66.4998 298.652 66.52 298.82 66.5049 298.986C66.4898 299.152 66.4397 299.314 66.3578 299.459C66.3416 299.496 66.3236 299.536 66.3048 299.58C66.1202 300.018 65.8958 300.438 65.6344 300.834C65.2283 301.527 64.628 302.085 63.908 302.439C63.5032 302.631 63.0602 302.728 62.6125 302.723V302.723Z" fill="#BC3838"/>
<path d="M209.714 313C220.808 313 229.802 303.998 229.802 292.894C229.802 281.79 220.808 272.788 209.714 272.788C198.62 272.788 189.627 281.79 189.627 292.894C189.627 303.998 198.62 313 209.714 313Z" fill="#E6E6E6"/>
<path d="M209.715 308.309C218.22 308.309 225.115 301.407 225.115 292.894C225.115 284.381 218.22 277.48 209.715 277.48C201.209 277.48 194.314 284.381 194.314 292.894C194.314 301.407 201.209 308.309 209.715 308.309Z" fill="white"/>
<path d="M215.326 290.016C215.14 290.016 214.962 290.089 214.83 290.221C214.699 290.353 214.625 290.531 214.625 290.718V292.122C214.625 294.836 212.426 295.632 209.714 295.632C207.003 295.632 204.804 294.836 204.804 292.122V290.718C204.804 290.531 204.73 290.353 204.599 290.221C204.467 290.089 204.289 290.016 204.103 290.016C203.917 290.016 203.738 290.089 203.607 290.221C203.475 290.353 203.401 290.531 203.401 290.718V292.122C203.403 293.675 203.977 295.174 205.011 296.331C206.046 297.489 207.471 298.225 209.013 298.399V301.249C209.013 301.435 209.087 301.614 209.218 301.746C209.35 301.877 209.528 301.951 209.714 301.951H209.715C209.901 301.951 210.079 301.877 210.21 301.746C210.342 301.614 210.416 301.435 210.416 301.249V298.399C211.958 298.225 213.383 297.489 214.417 296.331C215.452 295.174 216.026 293.675 216.028 292.122V290.718C216.028 290.531 215.954 290.353 215.822 290.221C215.691 290.089 215.512 290.016 215.326 290.016V290.016Z" fill="#BC3838"/>
<path d="M209.714 293.646C208.854 293.663 208.003 293.468 207.235 293.078C206.959 292.969 206.718 292.786 206.537 292.55C206.356 292.315 206.242 292.034 206.207 291.739V289.126C206.2 288.09 207.758 287.247 209.687 287.243C209.696 287.243 209.705 287.243 209.714 287.243C211.631 287.232 213.201 288.057 213.222 289.086C213.222 289.099 213.222 289.113 213.222 289.126V291.739C213.231 292.785 211.662 293.638 209.714 293.646Z" fill="#BC3838"/>
<path d="M263.048 249.191H13.3852C11.2871 249.189 9.2757 248.354 7.79215 246.869C6.3086 245.384 5.47409 243.37 5.47168 241.27V61.9867C5.47409 59.8868 6.3086 57.8735 7.79215 56.3885C9.2757 54.9036 11.2871 54.0683 13.3852 54.0659H263.048C265.146 54.0683 267.158 54.9036 268.641 56.3885C270.125 57.8735 270.959 59.8868 270.962 61.9867V241.27C270.959 243.37 270.125 245.384 268.641 246.869C267.158 248.354 265.146 249.189 263.048 249.191V249.191Z" fill="white"/>
<path d="M136.995 165.174C151.589 165.174 163.421 153.331 163.421 138.723C163.421 124.115 151.589 112.273 136.995 112.273C122.4 112.273 110.568 124.115 110.568 138.723C110.568 153.331 122.4 165.174 136.995 165.174Z" fill="#FFB8B8"/>
<path d="M107.514 113.277C107.714 110.24 109.721 107.132 116.097 105.507C116.097 105.507 127.04 91.5019 141.909 98.8466C141.909 98.8466 149.118 97.6053 154.464 105.092C154.464 105.092 159.763 101.963 161.999 107.508C161.999 107.508 168.215 118.82 165.927 130.357C163.638 141.895 162.467 143.335 162.467 143.335C162.467 143.335 165.384 119.469 148.584 121.124C131.784 122.779 118.258 116.866 114.453 129.813C111.294 140.564 111.692 146.148 111.692 146.148C111.692 146.148 101.128 135.423 104.72 126.977C106.557 122.658 107.206 117.962 107.514 113.277Z" fill="#2F2E41"/>
<path d="M65.1309 248.918H211.301C210.325 237.758 209.686 229.454 209.686 226.647C209.686 214.263 199.562 200.748 199.562 200.748L195.938 198.744L165.676 189.293L157.844 179.111C157.024 178.042 155.968 177.177 154.757 176.586C153.547 175.994 152.216 175.692 150.87 175.702L126.13 175.888C123.953 175.905 121.861 176.735 120.263 178.215L104.944 192.44L82.475 203.179L82.4368 203.141L82.2022 203.316L78.8676 205.719L76.7227 207.271C76.7227 207.271 71.096 214.028 66.5989 234.294C65.9222 237.343 65.4474 242.445 65.1309 248.918Z" fill="#BC3838"/>
<path d="M398.803 260.533H315.49C312.74 260.53 310.105 259.436 308.161 257.49C306.217 255.544 305.123 252.906 305.12 250.154V193.039C305.123 190.287 306.217 187.649 308.161 185.704C310.105 183.758 312.74 182.663 315.49 182.66H398.803C401.553 182.663 404.188 183.758 406.132 185.704C408.076 187.649 409.17 190.287 409.173 193.039V250.154C409.17 252.906 408.076 255.544 406.132 257.49C404.188 259.436 401.553 260.53 398.803 260.533V260.533ZM315.49 188.123C314.187 188.124 312.939 188.643 312.018 189.564C311.097 190.486 310.579 191.736 310.578 193.039V250.154C310.579 251.458 311.097 252.707 312.018 253.629C312.939 254.551 314.187 255.069 315.49 255.071H398.803C400.106 255.069 401.354 254.551 402.275 253.629C403.196 252.707 403.714 251.458 403.715 250.154V193.039C403.714 191.736 403.196 190.486 402.275 189.564C401.354 188.643 400.106 188.124 398.803 188.123H315.49Z" fill="#E6E6E6"/>
<path d="M398.803 258.075H315.49C313.392 258.073 311.38 257.238 309.897 255.753C308.413 254.268 307.579 252.254 307.576 250.154V193.039C307.579 190.939 308.413 188.926 309.897 187.441C311.38 185.956 313.392 185.121 315.49 185.118H398.803C400.902 185.121 402.913 185.956 404.397 187.441C405.88 188.926 406.715 190.939 406.717 193.039V250.154C406.715 252.254 405.88 254.268 404.397 255.753C402.913 257.238 400.902 258.073 398.803 258.075V258.075Z" fill="white"/>
<path d="M364.96 203.71C365.441 200.703 364.079 198.488 360.465 197.239C356.871 194.117 351.559 193.368 348.37 198.368C347.083 198.291 345.816 198.715 344.833 199.551C343.851 200.387 343.228 201.57 343.096 202.854C340.167 206.261 343.419 218.767 344.383 223.532L349.524 223.481L359.787 223.38L364.96 223.329L366.931 212.156C368.129 208.907 367.641 206.058 364.96 203.71Z" fill="#E6E6E6"/>
<path d="M383.628 250.751C384.971 249.893 386.393 249.166 387.875 248.581L373.257 231.209L363.596 228.734C363.517 228.69 363.439 228.644 363.361 228.597L347.064 229.223L346.994 229.153L336.719 234.185L322.101 251.1C323.543 251.666 324.929 252.367 326.24 253.194L324.731 258.936H335.191L337.974 254.888H338.113C338.113 254.818 338.12 254.749 338.12 254.679L340.072 251.836C340.116 254.133 340.053 256.5 339.895 258.936H372.427C372.376 256.912 372.363 254.901 372.363 252.902L376.002 258.188C376.274 257.788 376.566 257.414 376.858 257.033L377.574 258.936H385.904L383.907 251.335C383.85 251.125 383.756 250.927 383.628 250.751V250.751Z" fill="#E6E6E6"/>
<path d="M398.803 128.906H315.49C312.74 128.903 310.105 127.809 308.161 125.863C306.217 123.917 305.123 121.279 305.12 118.527V61.412C305.123 58.6602 306.217 56.0221 308.161 54.0763C310.105 52.1306 312.74 51.0361 315.49 51.033H398.803C401.553 51.0361 404.188 52.1306 406.132 54.0763C408.076 56.0221 409.17 58.6602 409.173 61.412V118.527C409.17 121.279 408.076 123.917 406.132 125.863C404.188 127.809 401.553 128.903 398.803 128.906V128.906ZM315.49 56.4956C314.187 56.4971 312.939 57.0156 312.018 57.9372C311.097 58.8589 310.579 60.1085 310.578 61.412V118.527C310.579 119.831 311.097 121.08 312.018 122.002C312.939 122.924 314.187 123.442 315.49 123.443H398.803C400.106 123.442 401.354 122.924 402.275 122.002C403.196 121.08 403.714 119.831 403.715 118.527V61.412C403.714 60.1085 403.196 58.8589 402.275 57.9372C401.354 57.0156 400.106 56.4971 398.803 56.4956H315.49Z" fill="#E6E6E6"/>
<path d="M398.803 126.448H315.49C313.392 126.445 311.38 125.61 309.897 124.125C308.413 122.64 307.579 120.627 307.576 118.527V61.4119C307.579 59.3119 308.413 57.2986 309.897 55.8137C311.38 54.3288 313.392 53.4935 315.49 53.4911H398.803C400.901 53.4935 402.913 54.3288 404.396 55.8137C405.88 57.2986 406.715 59.3119 406.717 61.4119V118.527C406.715 120.627 405.88 122.64 404.396 124.125C402.913 125.61 400.901 126.445 398.803 126.448V126.448Z" fill="white"/>
<path d="M346.623 81.6521C346.873 84.1911 347.999 86.5636 349.807 88.3618C351.615 90.16 353.992 91.2714 356.53 91.5049C359.068 91.7385 361.609 91.0796 363.714 89.6415C365.819 88.2034 367.358 86.0761 368.066 83.6252C368.421 83.255 372.356 79.0463 370.932 75.698C370.228 73.8815 369.836 71.9592 369.772 70.012C369.689 68.7514 368.856 67.4613 366.21 66.7872C366.21 66.7872 361.668 60.9743 355.496 64.0227C355.496 64.0227 352.505 63.5074 350.286 66.6145C350.286 66.6145 348.086 65.3161 347.158 67.6176C347.158 67.6176 344.579 72.3123 345.528 77.1008C345.807 78.6374 346.173 80.157 346.623 81.6521V81.6521Z" fill="#E6E6E6"/>
<path d="M386.755 121.374C384.888 112.963 382.553 110.158 382.553 110.158L381.663 109.514L380.279 108.517L380.181 108.444L380.165 108.46L370.84 104.003L364.482 98.0989C363.819 97.4844 362.95 97.14 362.047 97.133L351.779 97.0559C351.22 97.0516 350.668 97.1771 350.165 97.4226C349.663 97.6681 349.224 98.0268 348.884 98.4706L345.634 102.697L333.074 106.619L331.57 107.451C331.57 107.451 327.368 113.06 327.368 118.2C327.368 119.365 327.103 122.811 326.697 127.443H387.364C387.31 125.408 387.106 123.379 386.755 121.374Z" fill="#E6E6E6"/>
<path d="M346.799 206.038H237.874C234.28 206.034 230.834 204.603 228.293 202.059C225.751 199.515 224.321 196.066 224.317 192.468V117.796C224.321 114.198 225.751 110.749 228.293 108.206C230.834 105.662 234.28 104.231 237.874 104.227H346.799C350.393 104.231 353.839 105.662 356.38 108.206C358.922 110.749 360.352 114.198 360.356 117.796V192.468C360.352 196.066 358.922 199.515 356.38 202.059C353.839 204.603 350.393 206.034 346.799 206.038ZM237.874 111.368C236.172 111.37 234.54 112.048 233.336 113.253C232.132 114.458 231.455 116.092 231.453 117.796V192.468C231.455 194.173 232.132 195.806 233.336 197.011C234.54 198.216 236.172 198.894 237.874 198.896H346.799C348.501 198.894 350.134 198.216 351.337 197.011C352.541 195.806 353.219 194.173 353.22 192.468V117.796C353.219 116.092 352.541 114.458 351.337 113.253C350.134 112.048 348.501 111.37 346.799 111.368H237.874Z" fill="#E6E6E6"/>
<path d="M346.798 107.44H237.875C235.132 107.443 232.502 108.536 230.562 110.478C228.622 112.419 227.53 115.052 227.526 117.798V192.471C227.53 195.216 228.622 197.848 230.562 199.789C232.502 201.73 235.132 202.821 237.875 202.824H346.798C349.541 202.821 352.171 201.73 354.111 199.789C356.051 197.848 357.143 195.216 357.147 192.471V117.798C357.143 115.052 356.052 112.419 354.112 110.478C352.172 108.536 349.542 107.443 346.798 107.44V107.44Z" fill="white"/>
<path d="M311.498 138.656C316.196 138.656 320.004 134.845 320.004 130.142C320.004 125.44 316.196 121.629 311.498 121.629C306.8 121.629 302.992 125.44 302.992 130.142C302.992 134.845 306.8 138.656 311.498 138.656Z" fill="#2F2E41"/>
<path d="M294.024 167.588C305.925 167.588 315.573 157.931 315.573 146.019C315.573 134.107 305.925 124.451 294.024 124.451C282.123 124.451 272.476 134.107 272.476 146.019C272.476 157.931 282.123 167.588 294.024 167.588Z" fill="#2F2E41"/>
<path d="M290.28 168.899C299.951 168.899 307.791 161.052 307.791 151.372C307.791 141.693 299.951 133.845 290.28 133.845C280.609 133.845 272.77 141.693 272.77 151.372C272.77 161.052 280.609 168.899 290.28 168.899Z" fill="#9E616A"/>
<path d="M283.679 129.545C287.08 128.385 290.731 128.161 294.249 128.896C297.766 129.632 301.022 131.299 303.676 133.725C306.329 136.151 308.283 139.246 309.332 142.686C310.381 146.126 310.488 149.786 309.641 153.281C300.445 153.529 290.923 153.165 282.378 147.755L281.379 141.893L278.89 146.982C275.804 147.509 272.751 147.856 270.393 145.077C271.055 141.551 272.631 138.26 274.963 135.535C277.294 132.809 280.3 130.744 283.679 129.545Z" fill="#2F2E41"/>
<path d="M324.247 109.305C330.574 107.95 337.503 110.792 341.364 115.989C345.226 121.185 346.003 128.416 343.689 134.465C341.328 140.635 336.231 145.266 331.465 149.837C326.699 154.409 321.901 159.513 320.471 165.963C319.441 170.609 320.293 175.474 322.841 179.492C325.389 183.509 329.426 186.351 334.064 187.395C328.096 188.528 321.878 189.654 316.017 188.056C310.155 186.458 304.794 181.263 305.13 175.191C305.373 170.816 308.356 167.162 310.951 163.634C315.179 157.885 318.699 151.645 321.433 145.052C322.738 141.905 323.879 138.545 323.513 135.158C323.182 132.634 322.051 130.284 320.284 128.453C318.518 126.623 316.211 125.409 313.703 124.99L312.138 122.791C312.66 116.336 317.919 110.661 324.247 109.305Z" fill="#2F2E41"/>
<path d="M330.455 202.341C329.321 190.774 322.913 191.228 322.913 191.228L305.991 187.919L298.58 175.602L279.974 174.875L273.351 186.5L259.741 188.202L259.73 188.395C258.38 188.498 253.515 189.565 252.539 199.503C252.449 200.417 252.324 201.535 252.165 202.824H330.506C330.489 202.653 330.472 202.494 330.455 202.341Z" fill="#2F2E41"/>
</svg>
