<svg width="728" height="312" viewBox="0 0 728 312" fill="none" xmlns="http://www.w3.org/2000/svg">
<g clip-path="url(#clip0)">
<path d="M159.791 174.058C159.798 173.1 159.607 172.151 159.231 171.271C158.855 170.39 158.301 169.597 157.605 168.94C156.908 168.283 156.084 167.777 155.183 167.453C154.282 167.129 153.325 166.995 152.37 167.058C151.415 167.121 150.483 167.38 149.632 167.82C148.782 168.259 148.031 168.87 147.427 169.612C146.823 170.355 146.379 171.215 146.122 172.137C145.864 173.06 145.8 174.025 145.933 174.973L125.928 201.185C125.074 202.893 124.743 204.815 124.976 206.711C125.21 208.606 125.997 210.391 127.239 211.841L128.808 213.672L136.008 212.232L144.169 205.027L143.209 196.862L153.289 181.013L153.276 181.002C155.041 180.889 156.696 180.109 157.906 178.819C159.116 177.529 159.79 175.827 159.791 174.058Z" fill="#FFB9B9"/>
<path d="M21.452 302.202L18.1865 290.067L63.4111 271.692L68.2304 289.601L21.452 302.202Z" fill="#FFB8B8"/>
<path d="M10.5286 308.464L0 269.337L0.494606 269.204C4.53132 268.117 8.83438 268.678 12.4573 270.765C16.0802 272.852 18.7263 276.294 19.8135 280.332L19.8138 280.333L26.2442 304.23L10.5286 308.464Z" fill="#BC3838"/>
<path d="M83.7465 300.263L73.5894 292.872L97.2478 250.154L112.239 261.062L83.7465 300.263Z" fill="#FFB8B8"/>
<path d="M79.1772 312L46.4248 288.168L46.7261 287.754C49.1849 284.371 52.886 282.104 57.0152 281.452C61.1444 280.799 65.3636 281.814 68.7448 284.274L68.7456 284.275L88.7496 298.83L79.1772 312Z" fill="#BC3838"/>
<path d="M170.09 240.568L144.529 215.724C142.299 213.556 139.36 212.266 136.255 212.093C133.15 211.919 130.086 212.873 127.628 214.779L79.3657 268.425L83.6861 275.149L129.768 243.93L160.97 284.755L190.731 269.866L170.09 240.568Z" fill="#3E677D"/>
<path d="M159.05 245.852L140.329 244.411L126.771 241.122C126.005 239.927 124.893 238.994 123.583 238.449C122.272 237.903 120.827 237.772 119.44 238.071C118.053 238.37 116.79 239.087 115.821 240.124C114.852 241.161 114.222 242.47 114.017 243.874C113.812 245.279 114.04 246.714 114.672 247.985C115.304 249.256 116.309 250.304 117.553 250.988C118.796 251.672 120.219 251.96 121.63 251.813C123.042 251.666 124.374 251.09 125.45 250.164L125.448 250.174L133.609 253.536L168.65 265.543L172.97 262.181L159.05 245.852Z" fill="#FFB9B9"/>
<path d="M204.172 297.723L193.611 304.447H181.13L123.048 282.834L38.0836 298.203L35.6836 279.952L113.448 245.852L181.611 268.425L204.172 297.723Z" fill="#3E677D"/>
<path d="M181.611 181.013C191.95 181.013 200.331 172.626 200.331 162.282C200.331 151.937 191.95 143.55 181.611 143.55C171.271 143.55 162.89 151.937 162.89 162.282C162.89 172.626 171.271 181.013 181.611 181.013Z" fill="#FFB9B9"/>
<path d="M230.05 237.067C230.05 248.372 228.269 259.606 224.774 270.356L223.373 274.669L216.652 305.407L209.452 307.329L204.172 300.605L193.611 292.92L185.931 280.432L179.345 269.453L177.291 266.024L170.09 230.002L142.729 214.633L133.608 213.192L135.528 207.909L143.689 196.862L151.849 195.902L154.249 193.981L156.169 194.941L166.754 199.021L201.071 184.514L206.092 185.335L223.373 199.744C227.79 211.691 230.051 224.329 230.05 237.067Z" fill="#CCCCCC"/>
<path opacity="0.1" d="M224.813 232.884L206.572 244.891L179.345 269.452L177.291 266.024L171.53 237.207H172.971L187.851 209.831L224.813 232.884Z" fill="black"/>
<path d="M187.851 206.948L172.97 234.325L164.33 243.931L156.65 245.852L177.291 268.425L206.572 242.009L224.812 230.002L187.851 206.948Z" fill="#CCCCCC"/>
<path d="M167.049 148.354L165.021 149.135C164.713 148.926 164.449 148.659 164.245 148.348C164.04 148.038 163.898 147.69 163.828 147.325C163.758 146.959 163.76 146.584 163.835 146.219C163.91 145.855 164.055 145.509 164.264 145.2C164.275 145.184 164.286 145.168 164.297 145.152L160.549 144.977C162.955 141.77 166.014 139.112 169.524 137.177C173.034 135.242 176.915 134.075 180.909 133.752C184.904 133.43 188.921 133.961 192.696 135.308C196.47 136.656 199.915 138.79 202.804 141.569C202.974 140.981 204.835 142.125 205.594 143.285C205.85 142.328 207.594 146.954 208.211 150.224C208.496 149.136 209.595 150.893 208.632 152.58C209.242 152.491 209.517 154.051 209.046 154.921C209.712 154.607 209.6 156.47 208.877 157.715C209.829 157.63 208.796 177.243 194.514 175.814C193.52 171.243 193.8 171.527 192.629 165.649C192.084 165.07 191.487 164.543 190.892 164.017L187.669 161.171C183.922 157.862 180.514 153.777 175.522 152.54C172.092 151.69 169.923 151.499 171.792 147.631C170.103 148.336 168.526 149.385 166.821 150.04C166.844 149.499 167.083 148.895 167.049 148.354Z" fill="#DAB671"/>
<path d="M190.971 167.805C192.827 167.805 194.331 166.3 194.331 164.443C194.331 162.586 192.827 161.081 190.971 161.081C189.115 161.081 187.611 162.586 187.611 164.443C187.611 166.3 189.115 167.805 190.971 167.805Z" fill="#FFB9B9"/>
<path d="M34.2744 85.0392L33.249 100.445L48.6464 101.471L49.6718 86.0652L34.2744 85.0392Z" fill="#E6E6E6"/>
<path d="M24.3404 93.2197L43.0372 94.4656L41.792 113.173L23.0952 111.927L24.3404 93.2197ZM42.1701 95.2247L25.0991 94.0873L23.9623 111.168L41.0332 112.305L42.1701 95.2247Z" fill="#CCCCCC"/>
<path d="M121.287 39.3563L106.2 42.5999L109.442 57.6953L124.529 54.4517L121.287 39.3563Z" fill="#E6E6E6"/>
<path d="M110.698 32.0447L114.634 50.3748L96.3144 54.3134L92.3779 35.9833L110.698 32.0447ZM113.667 49.7491L110.073 33.0129L93.3456 36.609L96.9397 53.3452L113.667 49.7491Z" fill="#CCCCCC"/>
<path d="M105.435 111.85L94.1724 122.405L104.722 133.674L115.984 123.119L105.435 111.85Z" fill="#E6E6E6"/>
<path d="M116.794 110.271L103.118 123.088L90.3081 109.404L103.984 96.5874L116.794 110.271ZM103.156 121.935L115.642 110.233L103.946 97.7396L91.4596 109.442L103.156 121.935Z" fill="#CCCCCC"/>
<path d="M687.863 0H231.289C229.638 -1.87653e-06 228.004 0.325227 226.479 0.957117C224.955 1.58901 223.569 2.51518 222.402 3.68276C221.235 4.85034 220.31 6.23647 219.678 7.76199C219.047 9.28751 218.722 10.9226 218.722 12.5738V267.109C218.722 268.76 219.047 270.395 219.678 271.921C220.31 273.446 221.235 274.832 222.402 276C223.569 277.167 224.955 278.094 226.479 278.726C228.004 279.357 229.638 279.683 231.289 279.683H687.863C691.196 279.683 694.393 278.358 696.749 276C699.106 273.642 700.43 270.444 700.43 267.109V12.5738C700.43 9.23899 699.106 6.04081 696.749 3.68277C694.393 1.32473 691.196 1.89492e-06 687.863 0Z" fill="#3F3D56"/>
<path d="M683.581 22.2214H235.57V275.085H683.581V22.2214Z" fill="white"/>
<path d="M459.193 15.3249C461.731 15.3249 463.788 13.2665 463.788 10.7274C463.788 8.18826 461.731 6.12988 459.193 6.12988C456.655 6.12988 454.598 8.18826 454.598 10.7274C454.598 13.2665 456.655 15.3249 459.193 15.3249Z" fill="white"/>
<path d="M555.458 275.085H235.57V22.2217L555.458 275.085Z" fill="#F2F2F2"/>
<path d="M305.671 256.163C329.454 256.163 348.735 236.872 348.735 213.075C348.735 189.278 329.454 169.987 305.671 169.987C281.887 169.987 262.606 189.278 262.606 213.075C262.606 236.872 281.887 256.163 305.671 256.163Z" fill="#BC3838"/>
<path d="M315.257 245.46C304.663 245.46 294.306 242.316 285.497 236.427C276.687 230.538 269.821 222.167 265.767 212.373C261.713 202.58 260.652 191.803 262.719 181.406C264.786 171.009 269.888 161.459 277.379 153.964C284.871 146.468 294.416 141.363 304.807 139.295C315.198 137.227 325.969 138.289 335.757 142.345C345.545 146.402 353.911 153.272 359.797 162.086C365.683 170.9 368.825 181.262 368.825 191.863C368.825 198.901 367.439 205.871 364.747 212.373C362.055 218.876 358.11 224.785 353.135 229.762C348.161 234.739 342.256 238.687 335.757 241.38C329.258 244.074 322.292 245.46 315.257 245.46ZM315.257 138.966C304.801 138.966 294.58 142.068 285.886 147.881C277.192 153.693 270.415 161.954 266.414 171.62C262.413 181.286 261.366 191.921 263.405 202.182C265.445 212.443 270.481 221.868 277.874 229.266C285.268 236.664 294.688 241.702 304.943 243.743C315.199 245.784 325.828 244.736 335.489 240.733C345.149 236.729 353.406 229.949 359.215 221.25C365.024 212.552 368.125 202.325 368.125 191.863C368.125 184.916 366.757 178.038 364.1 171.62C361.444 165.202 357.549 159.371 352.64 154.459C347.731 149.547 341.903 145.651 335.489 142.993C329.075 140.334 322.2 138.966 315.257 138.966L315.257 138.966Z" fill="#3F3D56"/>
<path d="M579.868 153.592H538.019V162.341H579.868V153.592Z" fill="#3F3D56"/>
<path d="M619.462 106.191H498.426V109.941H619.462V106.191Z" fill="#3F3D56"/>
<path d="M619.462 120.923H498.426V124.673H619.462V120.923Z" fill="#3F3D56"/>
<path d="M619.462 135.655H498.426V139.405H619.462V135.655Z" fill="#3F3D56"/>
<path d="M651.885 37.3542H634.396V54.8531H651.885V37.3542Z" fill="#BC3838"/>
<path d="M660.005 62.9774H638.768V41.7288H660.005V62.9774ZM639.691 62.0536H659.081V42.6526H639.691L639.691 62.0536Z" fill="#CCCCCC"/>
<path d="M713.009 270.488H669.286V267.336C669.286 267.254 669.27 267.172 669.238 267.096C669.207 267.021 669.161 266.952 669.103 266.894C669.045 266.836 668.976 266.79 668.9 266.758C668.824 266.727 668.743 266.711 668.661 266.711H653.67C653.588 266.711 653.507 266.727 653.431 266.758C653.356 266.79 653.287 266.836 653.229 266.894C653.171 266.952 653.125 267.021 653.093 267.096C653.062 267.172 653.046 267.254 653.046 267.336V270.488H643.677V267.336C643.677 267.254 643.661 267.172 643.629 267.096C643.598 267.021 643.552 266.952 643.494 266.894C643.436 266.836 643.367 266.79 643.291 266.758C643.215 266.727 643.134 266.711 643.052 266.711H628.061C627.979 266.711 627.898 266.727 627.822 266.758C627.746 266.79 627.678 266.836 627.62 266.894C627.562 266.952 627.516 267.021 627.484 267.096C627.453 267.172 627.437 267.254 627.437 267.336V270.488H618.068V267.336C618.068 267.254 618.051 267.172 618.02 267.096C617.989 267.021 617.943 266.952 617.885 266.894C617.827 266.836 617.758 266.79 617.682 266.758C617.606 266.727 617.525 266.711 617.443 266.711H602.452C602.37 266.711 602.289 266.727 602.213 266.758C602.137 266.79 602.068 266.836 602.01 266.894C601.952 266.952 601.906 267.021 601.875 267.096C601.844 267.172 601.827 267.254 601.827 267.336V270.488H592.458V267.336C592.458 267.254 592.442 267.172 592.411 267.096C592.379 267.021 592.333 266.952 592.275 266.894C592.217 266.836 592.148 266.79 592.073 266.758C591.997 266.727 591.916 266.711 591.834 266.711H576.843C576.761 266.711 576.68 266.727 576.604 266.758C576.528 266.79 576.459 266.836 576.401 266.894C576.343 266.952 576.297 267.021 576.266 267.096C576.234 267.172 576.218 267.254 576.218 267.336V270.488H566.849V267.336C566.849 267.254 566.833 267.172 566.802 267.096C566.77 267.021 566.724 266.952 566.666 266.894C566.608 266.836 566.539 266.79 566.464 266.758C566.388 266.727 566.307 266.711 566.225 266.711H551.234C551.152 266.711 551.07 266.727 550.995 266.758C550.919 266.79 550.85 266.836 550.792 266.894C550.734 266.952 550.688 267.021 550.657 267.096C550.625 267.172 550.609 267.254 550.609 267.336V270.488H541.24V267.336C541.24 267.254 541.224 267.172 541.192 267.096C541.161 267.021 541.115 266.952 541.057 266.894C540.999 266.836 540.93 266.79 540.854 266.758C540.779 266.727 540.697 266.711 540.615 266.711H525.625C525.543 266.711 525.461 266.727 525.385 266.758C525.31 266.79 525.241 266.836 525.183 266.894C525.125 266.952 525.079 267.021 525.047 267.096C525.016 267.172 525 267.254 525 267.336V270.488H515.631V267.336C515.631 267.254 515.615 267.172 515.583 267.096C515.552 267.021 515.506 266.952 515.448 266.894C515.39 266.836 515.321 266.79 515.245 266.758C515.169 266.727 515.088 266.711 515.006 266.711H397.579C397.497 266.711 397.415 266.727 397.339 266.758C397.264 266.79 397.195 266.836 397.137 266.894C397.079 266.952 397.033 267.021 397.001 267.096C396.97 267.172 396.954 267.254 396.954 267.336V270.488H387.585V267.336C387.585 267.254 387.569 267.172 387.537 267.096C387.506 267.021 387.46 266.952 387.402 266.894C387.344 266.836 387.275 266.79 387.199 266.758C387.123 266.727 387.042 266.711 386.96 266.711H371.969C371.887 266.711 371.806 266.727 371.73 266.758C371.655 266.79 371.586 266.836 371.528 266.894C371.47 266.952 371.424 267.021 371.392 267.096C371.361 267.172 371.345 267.254 371.345 267.336V270.488H361.976V267.336C361.976 267.254 361.959 267.172 361.928 267.096C361.897 267.021 361.851 266.952 361.793 266.894C361.735 266.836 361.666 266.79 361.59 266.758C361.514 266.727 361.433 266.711 361.351 266.711H346.36C346.278 266.711 346.197 266.727 346.121 266.758C346.045 266.79 345.976 266.836 345.918 266.894C345.86 266.952 345.814 267.021 345.783 267.096C345.752 267.172 345.736 267.254 345.736 267.336V270.488H336.366V267.336C336.366 267.254 336.35 267.172 336.319 267.096C336.287 267.021 336.241 266.952 336.183 266.894C336.125 266.836 336.056 266.79 335.981 266.758C335.905 266.727 335.824 266.711 335.742 266.711H320.751C320.669 266.711 320.588 266.727 320.512 266.758C320.436 266.79 320.367 266.836 320.309 266.894C320.251 266.952 320.205 267.021 320.174 267.096C320.142 267.172 320.126 267.254 320.126 267.336V270.488H310.757V267.336C310.757 267.254 310.741 267.172 310.71 267.096C310.678 267.021 310.632 266.952 310.574 266.894C310.516 266.836 310.447 266.79 310.372 266.758C310.296 266.727 310.215 266.711 310.133 266.711H295.142C295.06 266.711 294.979 266.727 294.903 266.758C294.827 266.79 294.758 266.836 294.7 266.894C294.642 266.952 294.596 267.021 294.565 267.096C294.533 267.172 294.517 267.254 294.517 267.336V270.488H285.148V267.336C285.148 267.254 285.132 267.172 285.1 267.096C285.069 267.021 285.023 266.952 284.965 266.894C284.907 266.836 284.838 266.79 284.762 266.758C284.687 266.727 284.605 266.711 284.523 266.711H269.533C269.367 266.711 269.208 266.777 269.091 266.894C268.974 267.011 268.908 267.17 268.908 267.336V270.488H259.539V267.336C259.539 267.254 259.523 267.172 259.491 267.096C259.46 267.021 259.414 266.952 259.356 266.894C259.298 266.836 259.229 266.79 259.153 266.758C259.077 266.727 258.996 266.711 258.914 266.711H243.923C243.758 266.711 243.599 266.777 243.482 266.894C243.365 267.011 243.299 267.17 243.299 267.336V270.488H214.566C210.591 270.488 206.778 272.068 203.966 274.881C201.155 277.694 199.576 281.509 199.576 285.487V292.269C199.576 296.247 201.155 300.062 203.966 302.875C206.778 305.688 210.591 307.268 214.566 307.268H713.009C716.985 307.268 720.798 305.688 723.609 302.875C726.42 300.062 728 296.247 728 292.269V285.487C728 283.517 727.612 281.567 726.859 279.747C726.105 277.927 725.001 276.274 723.609 274.881C722.217 273.488 720.564 272.383 718.746 271.629C716.927 270.876 714.977 270.488 713.009 270.488Z" fill="#3F3D56"/>
</g>
<defs>
<clipPath id="clip0">
<rect width="728" height="312" fill="white"/>
</clipPath>
</defs>
</svg>
