<svg width="377" height="285" viewBox="0 0 377 285" fill="none" xmlns="http://www.w3.org/2000/svg">
<g clip-path="url(#clip0)">
<path d="M155.394 197.465C155.394 207.301 147.76 215.275 138.343 215.275C128.926 215.275 121.292 207.301 121.292 197.465C121.292 197.242 121.296 197.021 121.305 196.8C121.478 186.965 129.253 179.142 138.668 179.326C148.083 179.51 155.573 187.631 155.397 197.465H155.394Z" fill="#BC3838"/>
<path d="M132.339 205.375L127.428 198.823L128.591 197.949L132.592 203.287L148.344 190.393L149.265 191.519L132.339 205.375Z" fill="white"/>
<path d="M248.224 100.131C248.576 100.292 248.916 100.481 249.238 100.697L281.49 86.9239L282.641 78.4232L295.528 78.344L294.767 97.8421L252.197 109.108C252.107 109.404 252 109.694 251.875 109.976C251.259 111.291 250.27 112.393 249.03 113.146C247.79 113.899 246.355 114.269 244.906 114.209C243.457 114.149 242.058 113.661 240.885 112.808C239.711 111.955 238.816 110.774 238.312 109.414C237.807 108.053 237.715 106.574 238.048 105.161C238.381 103.749 239.123 102.466 240.182 101.475C241.241 100.483 242.569 99.8267 244 99.5879C245.43 99.349 246.9 99.5385 248.223 100.132L248.224 100.131Z" fill="#FFB8B8"/>
<path d="M300.215 276.809H291.399L287.205 242.786H300.216L300.215 276.809Z" fill="#FFB8B8"/>
<path d="M285.102 274.289H302.103V284.997H274.396C274.396 282.156 275.524 279.432 277.532 277.423C279.54 275.414 282.262 274.286 285.102 274.286V274.286V274.289Z" fill="#2F2E41"/>
<path d="M334.5 274.317L325.728 275.18L318.221 241.732L331.169 240.459L334.5 274.317Z" fill="#FFB8B8"/>
<path d="M319.208 273.293L336.125 271.625L337.174 282.283L309.606 285C309.328 282.174 310.183 279.353 311.984 277.157C313.784 274.962 316.383 273.572 319.207 273.293H319.208Z" fill="#2F2E41"/>
<path d="M302.669 42.3354C312.423 42.3354 320.33 34.4237 320.33 24.6641C320.33 14.9044 312.423 6.99268 302.669 6.99268C292.915 6.99268 285.008 14.9044 285.008 24.6641C285.008 34.4237 292.915 42.3354 302.669 42.3354Z" fill="#FFB8B8"/>
<path d="M289.428 269.928C288.67 269.93 287.936 269.664 287.355 269.177C286.775 268.69 286.384 268.013 286.253 267.266C281.693 241.926 266.775 159.054 266.418 156.757C266.41 156.704 266.406 156.651 266.406 156.597V150.417C266.406 150.192 266.476 149.973 266.607 149.79L268.577 147.031C268.671 146.898 268.794 146.788 268.936 146.71C269.079 146.632 269.238 146.588 269.4 146.581C280.635 146.054 317.423 144.509 319.2 146.731C320.985 148.962 320.351 155.73 320.207 157.063L320.214 157.202L336.743 262.967C336.872 263.81 336.664 264.671 336.164 265.363C335.664 266.054 334.912 266.521 334.07 266.661L323.747 268.363C322.978 268.486 322.191 268.33 321.528 267.921C320.864 267.513 320.37 266.88 320.134 266.137C316.941 255.929 306.235 221.588 302.524 208.299C302.504 208.212 302.452 208.135 302.378 208.084C302.304 208.033 302.213 208.012 302.124 208.025C302.036 208.038 301.955 208.084 301.898 208.153C301.842 208.223 301.813 208.312 301.819 208.401C302.004 221.069 302.452 253.386 302.61 264.549L302.626 265.751C302.633 266.565 302.335 267.352 301.79 267.956C301.245 268.56 300.493 268.938 299.683 269.015L289.729 269.917C289.629 269.926 289.528 269.93 289.428 269.928Z" fill="#2F2E41"/>
<path d="M291.46 49.2844C288.378 51.1178 286.533 54.4862 285.475 57.92C283.516 64.2667 282.337 70.8286 281.963 77.4606L280.844 97.3175L266.998 149.963C278.999 160.123 285.921 157.813 302.075 149.503C318.23 141.193 320.075 152.274 320.075 152.274L323.305 107.479L327.92 58.5307C326.884 57.2825 325.711 56.1546 324.424 55.1679C320.158 51.8482 315.195 49.5405 309.908 48.4187C304.622 47.297 299.15 47.3905 293.905 48.6922L291.46 49.2844Z" fill="#BC3838"/>
<path d="M286.963 110.763C287.335 110.902 287.696 111.071 288.041 111.267L319.932 95.2939L320.461 86.6414L333.616 85.7339L334.321 105.458L291.704 119.561C291.356 121.055 290.562 122.408 289.427 123.44C288.292 124.471 286.87 125.133 285.351 125.336C283.831 125.539 282.285 125.274 280.919 124.577C279.553 123.88 278.432 122.783 277.705 121.432C276.977 120.082 276.678 118.542 276.847 117.017C277.015 115.492 277.644 114.054 278.649 112.896C279.654 111.737 280.988 110.912 282.474 110.531C283.959 110.149 285.525 110.229 286.963 110.76L286.963 110.763Z" fill="#FFB8B8"/>
<path d="M327.69 58.7508C335.536 61.5214 336.919 91.5412 336.919 91.5412C327.688 86.4615 316.612 94.7737 316.612 94.7737C316.612 94.7737 314.304 86.9224 311.535 76.7635C310.699 73.9058 310.599 70.8829 311.244 67.9761C311.89 65.0693 313.26 62.3732 315.227 60.1387C315.227 60.1387 319.844 55.9788 327.69 58.7508Z" fill="#BC3838"/>
<path d="M318.501 29.336C316.301 27.5746 313.299 30.7749 313.299 30.7749L311.539 14.9262C311.539 14.9262 300.537 16.2451 293.494 14.4858C286.451 12.7264 285.352 20.8731 285.352 20.8731C284.989 17.5831 284.915 14.2675 285.132 10.9646C285.572 7.00138 291.293 3.03819 301.415 0.395884C311.538 -2.24642 316.819 9.20321 316.819 9.20321C323.864 12.7234 320.705 31.0994 318.501 29.336Z" fill="#2F2E41"/>
<path d="M82.2871 23.2762C81.8667 23.277 81.4638 23.4446 81.1669 23.7423C80.8699 24.04 80.7031 24.4434 80.7031 24.864C80.7031 25.2845 80.8699 25.688 81.1669 25.9856C81.4638 26.2833 81.8667 26.4509 82.2871 26.4517H198.141C198.561 26.4509 198.964 26.2833 199.261 25.9856C199.558 25.688 199.725 25.2845 199.725 24.864C199.725 24.4434 199.558 24.04 199.261 23.7423C198.964 23.4446 198.561 23.277 198.141 23.2762H82.2871Z" fill="#CCCCCC"/>
<path d="M82.2871 32.8025C81.8667 32.8022 81.4633 32.9689 81.1656 33.2659C80.8678 33.563 80.7001 33.9662 80.6992 34.3869C80.6983 34.8076 80.8644 35.2114 81.1608 35.5097C81.4573 35.808 81.86 35.9764 82.2804 35.9779H155.525C155.733 35.9779 155.939 35.9368 156.132 35.857C156.324 35.7773 156.499 35.6603 156.647 35.5129C156.794 35.3654 156.911 35.1904 156.991 34.9978C157.07 34.8052 157.111 34.5987 157.111 34.3902C157.111 34.1817 157.07 33.9752 156.991 33.7826C156.911 33.59 156.794 33.415 156.647 33.2675C156.499 33.1201 156.324 33.0031 156.132 32.9233C155.939 32.8436 155.733 32.8025 155.525 32.8025H82.2871Z" fill="#CCCCCC"/>
<path d="M196.689 11.1392C196.689 14.9891 193.701 18.11 190.016 18.11C186.33 18.11 183.342 14.9891 183.342 11.1392C183.342 11.0519 183.343 10.9652 183.347 10.8787C183.414 7.02955 186.458 3.96756 190.143 4.03945C193.828 4.11133 196.759 7.29001 196.69 11.1392H196.689Z" fill="#BC3838"/>
<path d="M187.665 14.235L185.743 11.6706L186.198 11.3287L187.764 13.4179L193.93 8.37122L194.29 8.812L187.665 14.235Z" fill="white"/>
<path d="M82.2871 81.5284C81.8667 81.5292 81.4638 81.6968 81.1669 81.9945C80.8699 82.2922 80.7031 82.6956 80.7031 83.1161C80.7031 83.5367 80.8699 83.9402 81.1669 84.2378C81.4638 84.5355 81.8667 84.7031 82.2871 84.7039H198.141C198.561 84.7031 198.964 84.5355 199.261 84.2378C199.558 83.9402 199.725 83.5367 199.725 83.1161C199.725 82.6956 199.558 82.2922 199.261 81.9945C198.964 81.6968 198.561 81.5292 198.141 81.5284H82.2871Z" fill="#CCCCCC"/>
<path d="M82.2871 91.0547C81.8667 91.0544 81.4633 91.2211 81.1656 91.5181C80.8678 91.8152 80.7001 92.2184 80.6992 92.6391C80.6983 93.0598 80.8644 93.4636 81.1608 93.7619C81.4573 94.0602 81.86 94.2286 82.2804 94.2301H155.525C155.945 94.2301 156.349 94.0628 156.647 93.7651C156.944 93.4673 157.111 93.0635 157.111 92.6424C157.111 92.2213 156.944 91.8175 156.647 91.5197C156.349 91.222 155.945 91.0547 155.525 91.0547H82.2871Z" fill="#CCCCCC"/>
<path d="M196.178 69.3914C196.178 73.2413 193.19 76.3622 189.504 76.3622C185.818 76.3622 182.83 73.2413 182.83 69.3914C182.83 69.3041 182.831 69.2174 182.835 69.1309C182.903 65.2817 185.946 62.2198 189.631 62.2916C193.316 62.3635 196.248 65.5422 196.179 69.3914H196.178Z" fill="#BC3838"/>
<path d="M187.155 72.4872L185.232 69.9227L185.688 69.5809L187.254 71.6701L193.419 66.6234L193.779 67.0642L187.155 72.4872Z" fill="white"/>
<path d="M82.2871 139.781C81.8667 139.782 81.4638 139.949 81.1669 140.247C80.8699 140.544 80.7031 140.948 80.7031 141.368C80.7031 141.789 80.8699 142.192 81.1669 142.49C81.4638 142.788 81.8667 142.955 82.2871 142.956H198.141C198.561 142.955 198.964 142.788 199.261 142.49C199.558 142.192 199.725 141.789 199.725 141.368C199.725 140.948 199.558 140.544 199.261 140.247C198.964 139.949 198.561 139.782 198.141 139.781H82.2871Z" fill="#CCCCCC"/>
<path d="M82.2871 149.307C81.8667 149.307 81.4633 149.473 81.1656 149.77C80.8678 150.067 80.7001 150.471 80.6992 150.891C80.6983 151.312 80.8644 151.716 81.1608 152.014C81.4573 152.312 81.86 152.481 82.2804 152.482H155.525C155.945 152.482 156.349 152.315 156.647 152.017C156.944 151.72 157.111 151.316 157.111 150.895C157.111 150.473 156.944 150.07 156.647 149.772C156.349 149.474 155.945 149.307 155.525 149.307H82.2871Z" fill="#CCCCCC"/>
<path d="M196.178 127.644C196.178 131.493 193.19 134.614 189.504 134.614C185.818 134.614 182.83 131.493 182.83 127.644C182.83 127.556 182.831 127.47 182.835 127.383C182.903 123.534 185.946 120.472 189.631 120.544C193.316 120.616 196.248 123.794 196.179 127.644H196.178Z" fill="#BC3838"/>
<path d="M187.155 130.739L185.232 128.175L185.688 127.833L187.254 129.922L193.419 124.876L193.779 125.316L187.155 130.739Z" fill="white"/>
</g>
<defs>
<clipPath id="clip0">
<rect width="377" height="285" fill="white"/>
</clipPath>
</defs>
</svg>
